<svg width="88" height="24" viewBox="0 0 88 24" fill="none" xmlns="http://www.w3.org/2000/svg">
    <path d="M3 18.3345H9.32666C13.8076 18.3345 16.4531 15.5659 16.4531 10.8286V10.8081C16.4531 6.08105 13.8076 3.53809 9.32666 3.53809H3V18.3345ZM7.34766 14.8789V6.99365H8.71143C10.7827 6.99365 12.0234 8.32666 12.0234 10.8081V10.8286C12.0234 13.5562 10.8853 14.8789 8.71143 14.8789H7.34766Z" fill="#484848"/>
    <path d="M20.0215 5.99902C21.2007 5.99902 22.103 5.08643 22.103 3.99951C22.103 2.9126 21.2007 2 20.0215 2C18.8423 2 17.9399 2.9126 17.9399 3.99951C17.9399 5.08643 18.8423 5.99902 20.0215 5.99902ZM17.9194 18.3345H22.1235V7.01416H17.9194V18.3345Z" fill="#484848"/>
    <path d="M29.4551 22.1694C33.167 22.1694 35.4844 20.4468 35.4844 18.0166V7.01416H31.2803V8.97266H31.188C30.6548 7.58838 29.4551 6.76807 27.8555 6.76807C25.0049 6.76807 23.4155 8.78809 23.4155 12.4897V12.5C23.4155 15.9863 24.9844 17.9243 27.8042 17.9243C29.4448 17.9243 30.6753 17.2373 31.1982 16.1094H31.2803V18.1191C31.2803 18.9189 30.6958 19.4829 29.4858 19.4829C28.4297 19.4829 27.8555 19.0112 27.7222 18.6934L27.7017 18.6421H23.6616L23.6719 18.7344C23.8872 20.6929 26.0405 22.1694 29.4551 22.1694ZM29.4858 15.1147C28.3887 15.1147 27.6812 14.1816 27.6812 12.6333V12.623C27.6812 11.0542 28.3989 10.1519 29.4858 10.1519C30.583 10.1519 31.3008 11.0542 31.3008 12.6333V12.6436C31.3008 14.2124 30.5933 15.1147 29.4858 15.1147Z" fill="#484848"/>
    <path d="M39.1963 5.99902C40.3755 5.99902 41.2778 5.08643 41.2778 3.99951C41.2778 2.9126 40.3755 2 39.1963 2C38.0171 2 37.1147 2.9126 37.1147 3.99951C37.1147 5.08643 38.0171 5.99902 39.1963 5.99902ZM37.0942 18.3345H41.2983V7.01416H37.0942V18.3345Z" fill="#484848"/>
    <path d="M49.0811 18.6011C53.1621 18.6011 55.541 16.6631 55.541 13.6074V13.5972C55.541 11.1978 54.0337 9.90576 50.8652 9.33154L49.3784 9.06494C47.9019 8.79834 47.2661 8.48047 47.2661 7.81396V7.80371C47.2661 7.12695 47.8813 6.604 49.0811 6.604C50.2705 6.604 51.1318 7.1167 51.2139 7.92676L51.2241 8.0293H55.2231L55.2129 7.80371C55.0898 5.03516 52.9878 3.27148 49.0298 3.27148C45.5229 3.27148 42.9595 5.14795 42.9595 8.12158V8.13184C42.9595 10.4287 44.5693 11.9155 47.5122 12.4385L48.999 12.7051C50.6396 13.0024 51.2344 13.2896 51.2344 13.9868V13.9971C51.2344 14.7354 50.4346 15.2686 49.1323 15.2686C47.9019 15.2686 46.897 14.7354 46.7227 13.9355L46.7021 13.8433H42.7031L42.7134 14.0381C42.8672 16.9604 45.2461 18.6011 49.0811 18.6011Z" fill="#484848"/>
    <path d="M70.8604 18.3345H75.0645V10.0493H77.1152V7.01416H74.9414V6.77832C74.9414 6.26562 75.3413 5.91699 76.3462 5.91699C76.623 5.91699 76.9204 5.9375 77.1152 5.97852V3.46631C76.6846 3.37402 75.8848 3.29199 75.1772 3.29199C71.9575 3.29199 70.8604 4.31738 70.8604 6.57324V7.01416H69.3633V10.0493H70.8604V18.3345Z" fill="#484848"/>
    <path d="M83.688 18.5806C84.5801 18.5806 85.1748 18.5088 85.626 18.4268V15.4941C85.4004 15.5249 85.2261 15.5454 84.9082 15.5454C84.0469 15.5454 83.6367 15.1763 83.6367 14.2637V10.0493H85.626V7.01416H83.6367V4.53271H79.4326V7.01416H77.9355V10.0493H79.4326V14.9097C79.4326 17.5757 80.7554 18.5806 83.688 18.5806Z" fill="#484848"/>
    <circle cx="62.5" cy="11.5" r="6.5" fill="#FF2424"/>
</svg>
