<svg width="264" height="26" viewBox="0 0 264 26" fill="none" xmlns="http://www.w3.org/2000/svg">
    <path d="M222 25C228.627 25 234 19.6274 234 13C234 6.37258 228.627 1 222 1C215.373 1 210 6.37258 210 13C210 19.6274 215.373 25 222 25Z" fill="#F1FFFB"/>
    <path d="M215.848 12.9996C215.848 12.8965 215.851 12.7942 215.856 12.6924L214.01 12.6C214.004 12.7326 214 12.8658 214 12.9996C214 15.2083 214.895 17.2086 216.343 18.6566L217.652 17.348C216.539 16.2336 215.848 14.6957 215.848 12.9996Z" fill="white"/>
    <path d="M215.848 12.9996C215.848 12.8965 215.851 12.7942 215.856 12.6924L214.01 12.6C214.004 12.7326 214 12.8658 214 12.9996C214 15.2083 214.895 17.2086 216.343 18.6566L217.652 17.348C216.539 16.2336 215.848 14.6957 215.848 12.9996Z" fill="url(#paint0_linear_72_80)"/>
    <path d="M222 6.84756C222.103 6.84756 222.205 6.85133 222.307 6.85636L222.399 5.01005C222.267 5.00377 222.134 5 222 5C219.791 5 217.791 5.8952 216.343 7.34321L217.651 8.65177C218.766 7.53733 220.304 6.84756 222 6.84756Z" fill="white"/>
    <path d="M222 6.84756C222.103 6.84756 222.205 6.85133 222.307 6.85636L222.399 5.01005C222.267 5.00377 222.134 5 222 5C219.791 5 217.791 5.8952 216.343 7.34321L217.651 8.65177C218.766 7.53733 220.304 6.84756 222 6.84756Z" fill="url(#paint1_linear_72_80)"/>
    <path d="M222 19.1514C221.897 19.1514 221.795 19.1489 221.693 19.1439L221.601 20.9895C221.733 20.9958 221.866 20.9996 222 20.9996C224.209 20.9996 226.209 20.1044 227.657 18.6564L226.349 17.3478C225.234 18.461 223.696 19.1514 222 19.1514Z" fill="white"/>
    <path d="M222 19.1514C221.897 19.1514 221.795 19.1489 221.693 19.1439L221.601 20.9895C221.733 20.9958 221.866 20.9996 222 20.9996C224.209 20.9996 226.209 20.1044 227.657 18.6564L226.349 17.3478C225.234 18.461 223.696 19.1514 222 19.1514Z" fill="url(#paint2_linear_72_80)"/>
    <path d="M225.469 7.92117L227.025 6.77469C225.652 5.66464 223.904 5 222.001 5V6.84819C223.287 6.84756 224.481 7.24459 225.469 7.92117Z" fill="white"/>
    <path d="M225.469 7.92117L227.025 6.77469C225.652 5.66464 223.904 5 222.001 5V6.84819C223.287 6.84756 224.481 7.24459 225.469 7.92117Z" fill="url(#paint3_linear_72_80)"/>
    <path d="M229.872 11.5671C229.956 12.0328 230 12.5116 230 13.0012C230 15.2706 229.055 17.3197 227.539 18.7754L227.368 18.9347L226.126 17.5616C227.37 16.4349 228.152 14.8073 228.152 13.0006V12.9186L228.15 12.8366L229.872 11.5671ZM228.374 8.07092C228.754 8.568 229.076 9.10849 229.332 9.68137L222.047 15.1226L219.004 13.1889V10.8632L222.047 12.7912L228.374 8.07092Z" fill="white"/>
    <path d="M229.872 11.5671C229.956 12.0328 230 12.5116 230 13.0012C230 15.2706 229.055 17.3197 227.539 18.7754L227.368 18.9347L226.126 17.5616C227.37 16.4349 228.152 14.8073 228.152 13.0006V12.9186L228.15 12.8366L229.872 11.5671ZM228.374 8.07092C228.754 8.568 229.076 9.10849 229.332 9.68137L222.047 15.1226L219.004 13.1889V10.8632L222.047 12.7912L228.374 8.07092Z" fill="url(#paint4_linear_72_80)"/>
    <path d="M222.001 19.1518C220.195 19.1518 218.568 18.3691 217.441 17.1252L216.069 18.3672C217.532 19.9842 219.648 21 222.001 21V19.1518Z" fill="white"/>
    <path d="M222.001 19.1518C220.195 19.1518 218.568 18.3691 217.441 17.1252L216.069 18.3672C217.532 19.9842 219.648 21 222.001 21V19.1518Z" fill="url(#paint5_linear_72_80)"/>
    <path d="M217.875 8.44001L216.633 7.06738C215.016 8.53111 214 10.6468 214 12.9995H215.848C215.849 11.1927 216.631 9.56639 217.875 8.44001Z" fill="white"/>
    <path d="M217.875 8.44001L216.633 7.06738C215.016 8.53111 214 10.6468 214 12.9995H215.848C215.849 11.1927 216.631 9.56639 217.875 8.44001Z" fill="url(#paint6_linear_72_80)"/>
    <path d="M252 25C258.627 25 264 19.6274 264 13C264 6.37258 258.627 1 252 1C245.373 1 240 6.37258 240 13C240 19.6274 245.373 25 252 25Z" fill="#FFEBEA"/>
    <path fill-rule="evenodd" clip-rule="evenodd" d="M247 20.9942V18.8102H257.435V20.9942H247ZM250.727 11.7898H253.627L252.245 7.40832H252.19L250.727 11.7898ZM254.115 6.59936L257.191 15.8432H254.915L254.223 13.6461H250.103L249.358 15.8435H247.217L250.446 6.59968C250.759 5.70304 251.124 5 252.299 5C253.474 5 253.817 5.70592 254.115 6.59968V6.59936Z" fill="#DE2E21"/>
    <path d="M42 25C48.6274 25 54 19.6274 54 13C54 6.37258 48.6274 1 42 1C35.3726 1 30 6.37258 30 13C30 19.6274 35.3726 25 42 25Z" fill="#EFF2FF"/>
    <path fill-rule="evenodd" clip-rule="evenodd" d="M37.5002 15.8675H35.9424L34.7743 11.2799C34.7188 11.0689 34.6011 10.8823 34.4279 10.7944C33.9957 10.5734 33.5195 10.3975 33 10.3088V10.1322H35.5095C35.8558 10.1322 36.1156 10.3975 36.1589 10.7057L36.765 14.0149L38.322 10.1322H39.8365L37.5002 15.8675ZM40.7024 15.8675H39.2312L40.4426 10.1322H41.9138L40.7024 15.8675ZM43.8172 11.7211C43.8605 11.4122 44.1202 11.2356 44.4233 11.2356C44.8995 11.1913 45.4183 11.28 45.8512 11.5002L46.1109 10.2653C45.678 10.0887 45.2018 10 44.7696 10C43.3417 10 42.3027 10.7944 42.3027 11.897C42.3027 12.7358 43.0387 13.1762 43.5582 13.4415C44.1202 13.706 44.3367 13.8827 44.2934 14.1472C44.2934 14.5441 43.8605 14.7207 43.4283 14.7207C42.9088 14.7207 42.3893 14.5884 41.9138 14.3674L41.654 15.603C42.1736 15.8232 42.7356 15.9119 43.2551 15.9119C44.8562 15.9555 45.8512 15.1619 45.8512 13.9706C45.8512 12.4704 43.8172 12.3825 43.8172 11.7211ZM51 15.8675L49.8318 10.1322H48.5771C48.3174 10.1322 48.0576 10.3088 47.971 10.5734L45.8079 15.8675H47.3224L47.6247 15.0295H49.4855L49.6587 15.8675H51ZM48.7936 11.6768L49.2258 13.8384H48.0143L48.7936 11.6768Z" fill="#172B85"/>
    <path d="M162 25C168.627 25 174 19.6274 174 13C174 6.37258 168.627 1 162 1C155.373 1 150 6.37258 150 13C150 19.6274 155.373 25 162 25Z" fill="#FFF1E9"/>
    <path fill-rule="evenodd" clip-rule="evenodd" d="M154 12.1372C154 16.0475 157.26 19.2364 161.295 19.2364C161.791 19.2364 162.286 19.194 162.855 19.1453C163.49 19.0909 164.216 19.0287 165.137 19.0087C166.534 19.0087 168.047 19.5022 169.716 20.9448C169.871 21.0967 170.104 20.9069 169.949 20.717C168.28 18.705 166.767 18.3253 165.253 17.9836C163.391 17.566 162.421 16.579 161.761 15.4401C161.645 15.2123 161.567 15.2502 161.567 15.554C161.528 16.0095 161.567 16.4271 161.645 16.8447H161.412C158.773 16.8447 156.6 14.7187 156.6 12.1372C156.6 9.55566 158.773 7.42969 161.412 7.42969C164.05 7.42969 166.224 9.55566 166.224 12.1372C166.224 12.2891 166.224 12.4789 166.185 12.6687C165.797 12.5928 165.137 12.5928 164.633 12.6307C164.439 12.6307 164.439 12.7067 164.594 12.7446C166.146 13.0483 167.232 13.9974 167.504 15.7438C167.504 15.8197 167.543 15.8197 167.582 15.7817C168.203 14.7187 168.591 13.4659 168.591 12.1372C168.591 8.18896 165.331 5 161.295 5C157.26 5 154 8.22693 154 12.1372ZM166.573 15.0604C166.844 15.1743 166.961 15.554 166.961 15.7438C167 16.0475 166.922 16.1994 166.806 16.1994C166.689 16.1994 166.534 16.0855 166.379 15.8197C166.223 15.554 166.146 15.2882 166.223 15.1364C166.34 15.0604 166.456 15.0225 166.573 15.0604ZM164.982 16.2373C165.137 16.2373 165.331 16.3132 165.525 16.4651C165.835 16.7308 165.952 17.0345 165.797 17.2623C165.719 17.3762 165.525 17.4521 165.37 17.4521C165.176 17.4521 164.982 17.3762 164.865 17.2623C164.555 16.9966 164.477 16.6169 164.671 16.3892C164.71 16.3132 164.827 16.2373 164.982 16.2373Z" fill="#F28A1A"/>
    <path d="M72 25C78.6274 25 84 19.6274 84 13C84 6.37258 78.6274 1 72 1C65.3726 1 60 6.37258 60 13C60 19.6274 65.3726 25 72 25Z" fill="#F1FFFB"/>
    <path d="M66.9371 11.1615L66.2688 13.4767H66.1544L65.4861 11.1615C65.3717 10.7697 65.0129 10.5 64.6028 10.5H63V15.54H64.6048V12.5613H64.7192L65.6379 15.54H66.7853L67.7021 12.5613H67.8164V15.54H69.4213V10.5H67.8184C67.4103 10.5 67.0515 10.7697 66.9371 11.1615ZM75.8228 15.54H77.4374V14.0497H79.062C79.9117 14.0497 80.6353 13.5693 80.9152 12.894H75.8228V15.54ZM72.9621 11.0316L71.8324 13.4787H71.7181V10.5H70.1133V15.54H71.4756C71.8344 15.54 72.1597 15.3313 72.3095 15.0084L73.4392 12.5632H73.5536V15.54H75.1584V10.5H73.796C73.4372 10.5 73.112 10.7087 72.9621 11.0316Z" fill="#006848"/>
    <path d="M79.2216 10.5C79.6849 10.5 80.1049 10.6772 80.4223 10.9686C80.7772 11.2914 80.9999 11.7561 80.9999 12.2738C80.9999 12.3802 80.9881 12.4845 80.9704 12.5869H77.9894C76.98 12.5869 76.1243 11.9254 75.8365 11.0119C75.8325 11.002 75.8306 10.9902 75.8266 10.9784C75.8187 10.9508 75.8128 10.9213 75.8049 10.8937C75.7754 10.7658 75.7557 10.6358 75.7478 10.5H79.2216Z" fill="url(#paint7_linear_72_80)"/>
    <path d="M132 25C138.627 25 144 19.6274 144 13C144 6.37258 138.627 1 132 1C125.373 1 120 6.37258 120 13C120 19.6274 125.373 25 132 25Z" fill="#FAFAFA"/>
    <path fill-rule="evenodd" clip-rule="evenodd" d="M131.302 15.7975V13.6224H132.424C132.884 13.6224 133.273 13.4683 133.589 13.1643L133.665 13.0872C134.243 12.4578 134.205 11.4773 133.589 10.895C133.281 10.5867 132.859 10.4197 132.424 10.4283H130.622V15.7975H131.302ZM131.302 12.963V11.0876H132.441C132.686 11.0876 132.918 11.1818 133.091 11.3531C133.459 11.7128 133.467 12.3122 133.113 12.6847C132.94 12.8688 132.695 12.9716 132.441 12.963H131.302ZM136.835 12.4107C136.543 12.1409 136.147 12.0039 135.644 12.0039C134.999 12.0039 134.513 12.2437 134.193 12.7189L134.792 13.1C135.011 12.7746 135.311 12.6119 135.691 12.6119C135.931 12.6119 136.164 12.7018 136.345 12.8645C136.522 13.0187 136.624 13.2413 136.624 13.4768V13.6352C136.362 13.4897 136.033 13.4126 135.628 13.4126C135.155 13.4126 134.775 13.5239 134.492 13.7508C134.21 13.9778 134.066 14.2775 134.066 14.6586C134.058 15.0054 134.205 15.3351 134.467 15.5577C134.733 15.7975 135.07 15.9174 135.467 15.9174C135.936 15.9174 136.307 15.7076 136.59 15.288H136.619V15.7975H137.269V13.5325C137.269 13.0572 137.126 12.6804 136.835 12.4107ZM134.99 15.121C134.851 15.0182 134.767 14.8512 134.767 14.6714C134.767 14.4702 134.86 14.3032 135.041 14.1704C135.227 14.0377 135.459 13.9692 135.733 13.9692C136.113 13.9649 136.409 14.0506 136.62 14.2218C136.62 14.513 136.506 14.7656 136.282 14.9797C136.079 15.1852 135.805 15.3008 135.518 15.3008C135.328 15.3051 135.142 15.2409 134.99 15.121ZM138.73 17.4117L141 12.1238H140.261L139.211 14.7613H139.198L138.122 12.1238H137.383L138.873 15.562L138.029 17.4117H138.73Z" fill="#3C4043"/>
    <path d="M128.956 13.1515C128.956 12.9417 128.939 12.7319 128.905 12.5264H126.04V13.7124H127.681C127.614 14.0935 127.394 14.436 127.074 14.6501V15.4208H128.053C128.627 14.8856 128.956 14.0935 128.956 13.1515Z" fill="#4285F4"/>
    <path d="M126.04 16.1659C126.859 16.1659 127.551 15.8919 128.053 15.4209L127.074 14.6502C126.799 14.8386 126.449 14.9456 126.04 14.9456C125.246 14.9456 124.575 14.4019 124.335 13.674H123.326V14.4704C123.841 15.5108 124.892 16.1659 126.04 16.1659Z" fill="#34A853"/>
    <path d="M124.335 13.6738C124.208 13.2927 124.208 12.8774 124.335 12.4921V11.7H123.326C122.891 12.5691 122.891 13.5967 123.326 14.4659L124.335 13.6738Z" fill="#FBBC04"/>
    <path d="M126.04 11.2205C126.474 11.2119 126.892 11.3789 127.205 11.6829L128.074 10.8009C127.521 10.2785 126.795 9.99161 126.04 10.0002C124.892 10.0002 123.841 10.6596 123.326 11.7L124.335 12.4964C124.575 11.7642 125.246 11.2205 126.04 11.2205Z" fill="#EA4335"/>
    <path d="M102 25C108.627 25 114 19.6274 114 13C114 6.37258 108.627 1 102 1C95.3726 1 90 6.37258 90 13C90 19.6274 95.3726 25 102 25Z" fill="#202020"/>
    <path fill-rule="evenodd" clip-rule="evenodd" d="M96.289 9.99289C96.078 10.253 95.7405 10.4582 95.4029 10.4289C95.3607 10.0772 95.526 9.70345 95.7194 9.47263C95.9303 9.20517 96.2995 9.01466 96.5984 9C96.6335 9.36638 96.4964 9.72544 96.289 9.99289ZM96.5948 10.4985C96.2975 10.4806 96.0261 10.5917 95.807 10.6813C95.6659 10.7391 95.5465 10.7879 95.4556 10.7879C95.3537 10.7879 95.2293 10.7364 95.0897 10.6786C94.9067 10.6029 94.6975 10.5163 94.4782 10.5205C93.9754 10.5278 93.5078 10.8246 93.2511 11.2972C92.7237 12.2425 93.114 13.642 93.6238 14.4114C93.8734 14.7925 94.1723 15.2101 94.5661 15.1955C94.7393 15.1887 94.864 15.1336 94.9929 15.0765C95.1414 15.0109 95.2957 14.9427 95.5365 14.9427C95.769 14.9427 95.9165 15.0091 96.0581 15.0729C96.1927 15.1335 96.322 15.1917 96.514 15.1882C96.9218 15.1808 97.1785 14.8071 97.4281 14.4261C97.6975 14.0171 97.8159 13.618 97.8339 13.5574L97.836 13.5504C97.8356 13.55 97.8322 13.5484 97.8264 13.5456C97.7363 13.5026 97.048 13.1743 97.0414 12.2937C97.0347 11.5547 97.5873 11.1802 97.6743 11.1213C97.6796 11.1177 97.6832 11.1153 97.6848 11.114C97.3332 10.5718 96.7847 10.5131 96.5948 10.4985ZM99.4182 15.1479V9.436H101.475C102.537 9.436 103.279 10.1981 103.279 11.3119C103.279 12.4257 102.523 13.1951 101.447 13.1951H100.269V15.1479H99.4182ZM100.269 10.1834H101.25C101.988 10.1834 102.41 10.5937 102.41 11.3155C102.41 12.0373 101.988 12.4513 101.246 12.4513H100.269V10.1834ZM106.088 14.4627C105.863 14.9097 105.367 15.1918 104.833 15.1918C104.042 15.1918 103.49 14.7009 103.49 13.9608C103.49 13.228 104.024 12.8067 105.012 12.7444L106.074 12.6785V12.3634C106.074 11.8981 105.782 11.6453 105.262 11.6453C104.833 11.6453 104.52 11.8761 104.457 12.2278H103.69C103.715 11.4877 104.383 10.9491 105.286 10.9491C106.26 10.9491 106.893 11.4804 106.893 12.3047V15.1479H106.106V14.4627H106.088ZM105.061 14.514C104.608 14.514 104.32 14.2869 104.32 13.9388C104.32 13.5797 104.597 13.3709 105.128 13.3379L106.074 13.2756V13.5981C106.074 14.133 105.638 14.514 105.061 14.514ZM109.506 15.3714C109.165 16.3716 108.774 16.7014 107.945 16.7014C107.881 16.7014 107.67 16.694 107.621 16.6794V15.9943C107.674 16.0016 107.804 16.0089 107.871 16.0089C108.247 16.0089 108.458 15.844 108.588 15.4154L108.665 15.1626L107.224 11.0041H108.113L109.115 14.3785H109.133L110.135 11.0041H111L109.506 15.3714Z" fill="white"/>
    <path d="M192 25C198.627 25 204 19.6274 204 13C204 6.37258 198.627 1 192 1C185.373 1 180 6.37258 180 13C180 19.6274 185.373 25 192 25Z" fill="#EFF9FF"/>
    <path fill-rule="evenodd" clip-rule="evenodd" d="M191.97 5C193.221 5 194.407 5.28367 195.462 5.78729C195.628 5.86384 195.793 5.94806 195.959 6.04105L195.225 6.68025L194.123 5.57078L192.263 7.18606L191.157 6.01209L187.692 9.05291L189.914 11.4364L189.04 12.1839L191.229 14.571L190.361 15.3168L193.488 18.705L195.344 17.0415L196.949 18.8241C196.63 19.0657 196.282 19.293 195.899 19.5031C194.739 20.1473 193.397 20.5161 191.97 20.5161C187.58 20.5161 184 17.0307 184 12.7583C184 8.48495 187.58 5 191.97 5ZM190.517 12.2677L192.413 10.6064L194.119 12.4517L192.224 14.1124L190.517 12.2677ZM193.761 13.7946L191.865 15.4554L193.572 17.3007L195.467 15.6394L193.761 13.7946ZM189.161 9.11738L191.057 7.45654L192.763 9.30132L190.867 10.9622L189.161 9.11738ZM194.061 6.97782L192.639 8.22333L193.919 9.60738L195.34 8.3614L194.061 6.97782ZM195.165 13.9294L196.587 12.6835L197.866 14.0674L196.445 15.313L195.165 13.9294ZM197.836 15.478L196.415 16.7242L197.695 18.1073L199.116 16.8616L197.836 15.478ZM196.988 10.3189L197.935 9.48842L198.788 10.4108L197.841 11.2412L196.988 10.3189ZM196.725 6.74784L195.777 7.57818L196.63 8.50057L197.578 7.67023L196.725 6.74784ZM198.199 13.0595L199.147 12.229L200 13.1512L199.052 13.9817L198.199 13.0595ZM195.371 9.75977L193.949 11.0059L195.229 12.389L196.65 11.1434L195.371 9.75977Z" fill="#0068A3"/>
    <path d="M12 25C18.6274 25 24 19.6274 24 13C24 6.37258 18.6274 1 12 1C5.37258 1 0 6.37258 0 13C0 19.6274 5.37258 25 12 25Z" fill="#FAFAFA"/>
    <path fill-rule="evenodd" clip-rule="evenodd" d="M12 16.444C11.1527 17.1583 10.0535 17.5894 8.85246 17.5894C6.17252 17.5894 4 15.4428 4 12.7947C4 10.1467 6.17252 8 8.85246 8C10.0535 8 11.1527 8.43116 12 9.14539C12.8473 8.43116 13.9465 8 15.1475 8C17.8275 8 20 10.1467 20 12.7947C20 15.4428 17.8275 17.5894 15.1475 17.5894C13.9465 17.5894 12.8473 17.1583 12 16.444Z" fill="#ED0006"/>
    <path fill-rule="evenodd" clip-rule="evenodd" d="M12 16.444C13.0433 15.5646 13.7049 14.256 13.7049 12.7947C13.7049 11.3334 13.0433 10.0248 12 9.14539C12.8473 8.43116 13.9465 8 15.1475 8C17.8275 8 20 10.1467 20 12.7947C20 15.4428 17.8275 17.5894 15.1475 17.5894C13.9465 17.5894 12.8473 17.1583 12 16.444Z" fill="#F9A000"/>
    <path fill-rule="evenodd" clip-rule="evenodd" d="M12.0001 16.4442C13.0434 15.5647 13.705 14.2561 13.705 12.7949C13.705 11.3336 13.0434 10.025 12.0001 9.14551C10.9568 10.025 10.2952 11.3336 10.2952 12.7949C10.2952 14.2561 10.9568 15.5647 12.0001 16.4442Z" fill="#FF5E00"/>
    <defs>
        <linearGradient id="paint0_linear_72_80" x1="224.035" y1="4.88615" x2="210.547" y2="15.0985" gradientUnits="userSpaceOnUse">
            <stop stop-color="#52CF6F"/>
            <stop offset="1" stop-color="#139A9F"/>
        </linearGradient>
        <linearGradient id="paint1_linear_72_80" x1="224.035" y1="4.88617" x2="210.547" y2="15.0986" gradientUnits="userSpaceOnUse">
            <stop stop-color="#52CF6F"/>
            <stop offset="1" stop-color="#139A9F"/>
        </linearGradient>
        <linearGradient id="paint2_linear_72_80" x1="224.035" y1="4.88615" x2="210.547" y2="15.0986" gradientUnits="userSpaceOnUse">
            <stop stop-color="#52CF6F"/>
            <stop offset="1" stop-color="#139A9F"/>
        </linearGradient>
        <linearGradient id="paint3_linear_72_80" x1="224.035" y1="4.88617" x2="210.547" y2="15.0986" gradientUnits="userSpaceOnUse">
            <stop stop-color="#52CF6F"/>
            <stop offset="1" stop-color="#139A9F"/>
        </linearGradient>
        <linearGradient id="paint4_linear_72_80" x1="224.035" y1="4.88618" x2="210.547" y2="15.0986" gradientUnits="userSpaceOnUse">
            <stop stop-color="#52CF6F"/>
            <stop offset="1" stop-color="#139A9F"/>
        </linearGradient>
        <linearGradient id="paint5_linear_72_80" x1="224.035" y1="4.88622" x2="210.547" y2="15.0987" gradientUnits="userSpaceOnUse">
            <stop stop-color="#52CF6F"/>
            <stop offset="1" stop-color="#139A9F"/>
        </linearGradient>
        <linearGradient id="paint6_linear_72_80" x1="224.035" y1="4.88611" x2="210.547" y2="15.0985" gradientUnits="userSpaceOnUse">
            <stop stop-color="#52CF6F"/>
            <stop offset="1" stop-color="#139A9F"/>
        </linearGradient>
        <linearGradient id="paint7_linear_72_80" x1="80.9999" y1="17.0267" x2="75.7799" y2="17.0267" gradientUnits="userSpaceOnUse">
            <stop stop-color="#1E5CD8"/>
            <stop offset="1" stop-color="#02AFFF"/>
        </linearGradient>
    </defs>
</svg>
