<svg xmlns="http://www.w3.org/2000/svg" display="none">

    <symbol id="burger" viewBox="0 0 15 12">
        <path fill-rule="evenodd" clip-rule="evenodd"
              d="M1.5 0C0.947715 0 0.5 0.448367 0.5 1.00065C0.5 1.55294 0.947715 2.0013 1.5 2.0013H9.5C10.0523 2.0013 10.5 1.55294 10.5 1.00065C10.5 0.448367 10.0523 0 9.5 0H1.5ZM0.5 6.00391C0.5 5.45162 0.947715 5.00326 1.5 5.00326H13.5C14.0523 5.00326 14.5 5.45162 14.5 6.00391C14.5 6.55619 14.0523 7.00456 13.5 7.00456H1.5C0.947716 7.00456 0.5 6.55619 0.5 6.00391ZM0.5 10.9993C0.5 10.4471 0.947715 9.9987 1.5 9.9987H9.5C10.0523 9.9987 10.5 10.4471 10.5 10.9993C10.5 11.5516 10.0523 12 9.5 12H1.5C0.947715 12 0.5 11.5516 0.5 10.9993Z"/>
    </symbol>

    <symbol id="telegram" viewBox="0 0 28 28">
        <path fill-rule="evenodd" clip-rule="evenodd"
              d="M28 14C28 21.732 21.732 28 14 28C6.26801 28 0 21.732 0 14C0 6.26801 6.26801 0 14 0C21.732 0 28 6.26801 28 14ZM9.94978 11.764C8.69161 12.3133 7.39886 12.8778 6.21676 13.5289L6.21668 13.529C5.59943 13.9809 6.41988 14.3005 7.18952 14.6004C7.31187 14.6481 7.43295 14.6952 7.54676 14.7424C7.64146 14.7715 7.73777 14.8021 7.83537 14.8332C8.69135 15.106 9.64583 15.41 10.4768 14.9526C11.842 14.1684 13.1302 13.2618 14.4175 12.3559C14.8393 12.0591 15.261 11.7623 15.6852 11.47C15.705 11.4573 15.7275 11.4427 15.752 11.4268C16.1134 11.1926 16.9261 10.6658 16.6255 11.3917C15.9146 12.1691 15.1531 12.8573 14.3875 13.5493C13.8715 14.0156 13.3537 14.4837 12.8481 14.9819C12.4078 15.3396 11.9506 16.0591 12.4437 16.56C13.5792 17.355 14.7325 18.1307 15.8852 18.9059C16.2603 19.1582 16.6353 19.4104 17.0096 19.6632C17.6439 20.1697 18.6354 19.76 18.7748 18.9686C18.8369 18.6045 18.8991 18.2404 18.9614 17.8764C19.3055 15.8644 19.6498 13.8516 19.9539 11.8331C19.9952 11.5164 20.0421 11.1998 20.0889 10.8831C20.2026 10.1153 20.3163 9.34656 20.3518 8.57465C20.2602 7.80435 19.3263 7.97371 18.8065 8.14692C16.1348 9.16353 13.4898 10.2555 10.8553 11.3667C10.5569 11.4989 10.2543 11.631 9.94978 11.764Z"/>
    </symbol>

    <symbol id="prev" viewBox="0 0 9 14">
        <path d="M7.49912 12.8333L0.833334 7.03318M0.837916 6.96356L7.5 1.16665" stroke-width="1.66667"
              stroke-linecap="round"/>
    </symbol>

    <symbol id="next" viewBox="0 0 9 14">
        <path d="M1.50088 12.8333L8.16667 7.03318M8.16208 6.96356L1.5 1.16665" stroke-width="1.66667"
              stroke-linecap="round"/>
    </symbol>

    <symbol id="arrow-right" viewBox="0 0 15 12">
        <path d="M14.5657 6.56569C14.8781 6.25327 14.8781 5.74673 14.5657 5.43431L9.47452 0.343146C9.1621 0.0307264 8.65557 0.0307264 8.34315 0.343146C8.03073 0.655565 8.03073 1.1621 8.34315 1.47452L12.8686 6L8.34315 10.5255C8.03073 10.8379 8.03073 11.3444 8.34315 11.6569C8.65557 11.9693 9.1621 11.9693 9.47452 11.6569L14.5657 6.56569ZM0 6.8H14V5.2H0V6.8Z"/>
    </symbol>

    <symbol id="star" viewBox="0 0 24 22">
        <path d="M12 0L15.5972 7.04882L23.4127 8.2918L17.8205 13.8912L19.0534 21.7082L12 18.12L4.94658 21.7082L6.17953 13.8912L0.587322 8.2918L8.40275 7.04882L12 0Z"/>
    </symbol>

    <symbol id="heart" viewBox="0 0 40 40">
        <path fill-rule="evenodd" clip-rule="evenodd"
              d="M20 8.19159C21.8166 6.05825 24.6 4.70825 27.5 4.70825C32.6333 4.70825 36.6666 8.74159 36.6666 13.8749C36.6666 20.1697 31.0093 25.2998 22.4378 33.0724L22.4166 33.0916L20 35.2916L17.5833 33.1083L17.5175 33.0485C8.97103 25.282 3.33331 20.1588 3.33331 13.8749C3.33331 8.74159 7.36665 4.70825 12.5 4.70825C15.4 4.70825 18.1833 6.05825 20 8.19159ZM19.9999 30.7916L20.1666 30.6249C28.0999 23.4416 33.3333 18.6916 33.3333 13.8749C33.3333 10.5416 30.8333 8.04159 27.4999 8.04159C24.9333 8.04159 22.4333 9.69159 21.5666 11.9749H18.4499C17.5666 9.69159 15.0666 8.04159 12.4999 8.04159C9.16661 8.04159 6.66661 10.5416 6.66661 13.8749C6.66661 18.6916 11.8999 23.4416 19.8333 30.6249L19.9999 30.7916Z"/>
    </symbol>

    <symbol id="like" viewBox="0 0 34 34">
        <path fill-rule="evenodd" clip-rule="evenodd"
              d="M12.75 31.1667H25.5C26.6758 31.1667 27.6817 30.4584 28.1067 29.4384L32.385 19.4509C32.5125 19.125 32.5833 18.785 32.5833 18.4167V15.5834C32.5833 14.025 31.3083 12.75 29.75 12.75H20.8108L22.1567 6.27587L22.1992 5.82254C22.1992 5.24171 21.9583 4.70337 21.5758 4.32087L20.0742 2.83337L10.7383 12.1692C10.2283 12.6792 9.91666 13.3875 9.91666 14.1667V28.3334C9.91666 29.8917 11.1917 31.1667 12.75 31.1667ZM13 13.1484L19.1484 7.00006L17.25 14.5651H30V17.3984L25.75 27.3151H13V13.1484ZM7.08332 14.1667H1.41666V31.1667H7.08332V14.1667Z"/>
    </symbol>

    <symbol id="verified" viewBox="0 0 40 40">
        <path fill-rule="evenodd" clip-rule="evenodd"
              d="M20 1.66663L5 8.33329V18.3333C5 27.5833 11.4 36.2333 20 38.3333C28.6 36.2333 35 27.5833 35 18.3333V8.33329L20 1.66663ZM31.6667 18.3333C31.6667 25.8666 26.7 32.8166 20 34.8833C13.3 32.8166 8.33333 25.8666 8.33333 18.3333V10.5L20 5.31663L31.6667 10.5V18.3333ZM10 21.6666L12.35 19.3166L16.6667 23.6166L27.65 12.6333L30 15L16.6667 28.3333L10 21.6666Z"
              fill-opacity="0.84"/>
    </symbol>

    <symbol id="navigation-icon" viewBox="0 0 16 16">
        <path fill-rule="evenodd" clip-rule="evenodd"
              d="M2.66671 5.33329H5.33337V2.66663H2.66671V5.33329ZM6.66669 13.3333H9.33335V10.6667H6.66669V13.3333ZM5.33335 13.3333H2.66669V10.6667H5.33335V13.3333ZM2.66669 9.33333H5.33335V6.66667H2.66669V9.33333ZM9.33335 9.33333H6.66669V6.66667H9.33335V9.33333ZM10.6667 2.66667V5.33333H13.3334V2.66667H10.6667ZM9.33335 5.33333H6.66669V2.66667H9.33335V5.33333ZM10.6667 9.33333H13.3334V6.66667H10.6667V9.33333ZM13.3334 13.3333H10.6667V10.6667H13.3334V13.3333Z"/>
    </symbol>

    <symbol id="question" viewBox="0 0 16 16">
        <path fill-rule="evenodd" clip-rule="evenodd"
              d="M0.5 8C0.5 3.86 3.86 0.5 8 0.5C12.14 0.5 15.5 3.86 15.5 8C15.5 12.14 12.14 15.5 8 15.5C3.86 15.5 0.5 12.14 0.5 8ZM8.75 11V12.5H7.25V11H8.75ZM8 14C4.6925 14 2 11.3075 2 8C2 4.6925 4.6925 2 8 2C11.3075 2 14 4.6925 14 8C14 11.3075 11.3075 14 8 14ZM5 6.5C5 4.8425 6.3425 3.5 8 3.5C9.6575 3.5 11 4.8425 11 6.5C11 7.46219 10.4075 7.97999 9.83057 8.48415C9.28326 8.96245 8.75 9.42847 8.75 10.25H7.25C7.25 8.88404 7.95659 8.34244 8.57783 7.86626C9.06518 7.49271 9.5 7.15941 9.5 6.5C9.5 5.675 8.825 5 8 5C7.175 5 6.5 5.675 6.5 6.5H5Z"/>
    </symbol>

    <symbol id="minus" viewBox="0 0 13 3">
        <path d="M7.8 3H5.2H0V0H5.2H7.8H13V3H7.8Z"/>
    </symbol>


    <symbol id="plus" viewBox="0 0 12 12">
        <path d="M7.2 12H4.8V7.2H0V4.8H4.8V0H7.2V4.8H12V7.2H7.2V12Z"/>
    </symbol>

</svg>