<svg width="109" height="38" viewBox="0 0 109 38" fill="none" xmlns="http://www.w3.org/2000/svg">
    <g clip-path="url(#clip0_72_129)">
        <path d="M5.04037 0.31665H103.959C106.543 0.31665 108.685 2.46998 108.685 5.06665V32.9333C108.685 35.53 106.543 37.6833 103.959 37.6833H5.04037C2.45714 37.6833 0.314941 35.53 0.314941 32.9333V5.06665C0.314941 2.46998 2.45714 0.31665 5.04037 0.31665Z" stroke="#FFDD2D"/>
        <path d="M16.8855 11.9066V13.9966H15.7513V12.92H12.034V13.9966H10.8999V11.9066H11.0889C11.4039 11.9066 11.656 11.6533 11.782 11.21C11.908 10.7666 11.971 10.1333 12.034 9.24664L12.097 7.59998H16.1924V11.9066H16.8855ZM12.9161 10.9566C12.8531 11.4 12.7271 11.7166 12.5381 11.9066H14.9323V8.61331H13.1051V9.37331C13.0421 10.0066 13.0421 10.5133 12.9161 10.9566Z" fill="black"/>
        <path d="M20.6657 9.18329C20.9808 9.49996 21.1698 9.94329 21.1698 10.5766V12.92H20.0357V12.4133C19.7837 12.7933 19.4056 12.9833 18.7756 12.9833C18.4605 12.9833 18.2085 12.92 17.9565 12.7933C17.7045 12.6666 17.5785 12.54 17.4524 12.35C17.3264 12.16 17.2634 11.97 17.2634 11.7166C17.2634 11.3366 17.3894 11.02 17.7045 10.83C18.0195 10.64 18.3975 10.5133 19.0276 10.5133H19.9727C19.9727 10.26 19.9097 10.07 19.7207 9.94329C19.5946 9.81662 19.3426 9.75329 19.0276 9.75329C18.8386 9.75329 18.5865 9.81662 18.3975 9.87996C18.2085 9.94329 18.0195 10.07 17.8935 10.1333L17.4524 9.30996C17.7045 9.18329 17.9565 9.05662 18.2715 8.92996C18.5865 8.86662 18.9016 8.80329 19.2166 8.80329C19.8467 8.73996 20.2877 8.92996 20.6657 9.18329ZM19.6576 12.0333C19.7837 11.97 19.9097 11.78 19.9727 11.59V11.1466H19.1536C18.6496 11.1466 18.3975 11.3366 18.3975 11.6533C18.3975 11.78 18.4605 11.9066 18.5865 12.0333C18.7126 12.0966 18.8386 12.16 19.0906 12.16C19.2796 12.16 19.4686 12.0966 19.6576 12.0333Z" fill="black"/>
        <path d="M22.178 8.80328H23.3751V10.3866H25.1393V8.80328H26.3364V12.92H25.1393V11.4H23.3751V12.92H22.178V8.80328Z" fill="black"/>
        <path d="M27.4075 8.80328H28.6046V10.3866H30.3687V8.80328H31.5659V12.92H30.3687V11.4H28.6046V12.92H27.4075V8.80328Z" fill="black"/>
        <path d="M36.0393 10.5133C36.2913 10.7666 36.4173 11.0833 36.4173 11.5266C36.4173 11.97 36.2913 12.35 35.9762 12.6033C35.6612 12.8566 35.2202 12.9833 34.6531 12.9833H32.7V8.86662H33.8971V10.1333H34.8421C35.3462 10.1333 35.7242 10.26 36.0393 10.5133ZM35.0942 11.9066C35.2202 11.78 35.2832 11.6533 35.2832 11.4633C35.2832 11.2733 35.2202 11.1466 35.0942 11.02C34.9682 10.9566 34.7791 10.8933 34.5901 10.8933H33.8971V12.0966H34.5901C34.7791 12.0966 34.9682 12.0333 35.0942 11.9066ZM36.8583 8.80328H38.0554V12.92H36.8583V8.80328Z" fill="black"/>
        <path d="M43.0959 11.21H40.0087C40.0717 11.4633 40.1977 11.6533 40.3867 11.78C40.5757 11.9066 40.8277 11.97 41.1428 11.97C41.3318 11.97 41.5208 11.9066 41.7098 11.8433C41.8988 11.78 42.0248 11.6533 42.1508 11.5266L42.7809 12.2233C42.4029 12.6666 41.8358 12.8566 41.0797 12.8566C40.6387 12.8566 40.1977 12.7933 39.8826 12.6033C39.5046 12.4133 39.2526 12.16 39.0636 11.8433C38.8745 11.5266 38.7485 11.1466 38.7485 10.7666C38.7485 10.3866 38.8745 10.0066 39.0636 9.68997C39.2526 9.3733 39.5046 9.11997 39.8196 8.92997C40.1347 8.73997 40.5127 8.67664 40.9537 8.67664C41.3318 8.67664 41.7098 8.73997 42.0248 8.92997C42.3399 9.11997 42.5919 9.3733 42.7809 9.68997C42.9699 10.0066 43.0329 10.3866 43.0329 10.83C43.1589 10.8933 43.0959 11.02 43.0959 11.21ZM40.3237 9.87997C40.1347 10.0066 40.0087 10.26 40.0087 10.5133H42.0248C41.9618 10.26 41.8988 10.07 41.7098 9.87997C41.5208 9.68997 41.3318 9.62664 41.0167 9.62664C40.7647 9.62664 40.5127 9.7533 40.3237 9.87997Z" fill="black"/>
        <path d="M50.2155 8.80328V12.92H49.0184V9.81662H47.3172V12.92H46.1201V8.80328H50.2155Z" fill="black"/>
        <path d="M52.1058 12.73C51.7908 12.54 51.4757 12.2866 51.2867 11.97C51.0977 11.6533 50.9717 11.2733 50.9717 10.8933C50.9717 10.5133 51.0977 10.1333 51.2867 9.81662C51.4757 9.49995 51.7277 9.24662 52.1058 9.05662C52.4208 8.86662 52.8619 8.80328 53.2399 8.80328C53.6179 8.80328 54.059 8.86662 54.374 9.05662C54.689 9.24662 55.004 9.49995 55.1931 9.81662C55.3821 10.1333 55.5081 10.5133 55.5081 10.8933C55.5081 11.2733 55.3821 11.6533 55.1931 11.97C55.004 12.2866 54.752 12.54 54.374 12.73C54.059 12.92 53.6809 12.9833 53.2399 12.9833C52.7988 12.9833 52.4208 12.8566 52.1058 12.73ZM53.996 11.7166C54.185 11.5266 54.311 11.21 54.311 10.8933C54.311 10.5766 54.185 10.26 53.996 10.07C53.8069 9.87995 53.5549 9.75328 53.2399 9.75328C52.9249 9.75328 52.6728 9.87995 52.4838 10.07C52.2948 10.26 52.1688 10.5766 52.1688 10.8933C52.1688 11.21 52.2948 11.5266 52.4838 11.7166C52.6728 11.9066 52.9249 12.0333 53.2399 12.0333C53.5549 11.97 53.8069 11.9066 53.996 11.7166Z" fill="black"/>
        <path d="M60.8005 11.9066V13.7433H59.7294V12.8566H56.8941V13.7433H55.823V11.9066H56.012C56.264 11.9066 56.4531 11.78 56.5161 11.4633C56.6421 11.1466 56.6421 10.7666 56.7051 10.1966L56.7681 8.80328H60.2964V11.9066H60.8005ZM57.5872 11.3366C57.5242 11.59 57.4611 11.78 57.3351 11.9066H59.0363V9.75328H57.7132V10.26C57.6502 10.7033 57.6502 11.0833 57.5872 11.3366Z" fill="black"/>
        <path d="M66.9119 11.1467C67.0379 11.2733 67.1009 11.4633 67.1009 11.7167C67.1009 11.97 67.0379 12.2233 66.8489 12.4133C66.6599 12.6033 66.4079 12.73 66.0928 12.8567C65.7778 12.9833 65.4628 13.0467 65.0217 13.0467C64.7067 13.0467 64.3917 12.9833 64.0767 12.92C63.7616 12.8567 63.5096 12.73 63.1946 12.6033L63.5096 11.78C63.9506 11.97 64.3917 12.0967 64.9587 12.0967C65.2108 12.0967 65.4628 12.0333 65.5888 11.97C65.7148 11.9067 65.8408 11.78 65.8408 11.59C65.8408 11.4633 65.7778 11.3367 65.6518 11.2733C65.5258 11.21 65.3998 11.1467 65.1478 11.1467H64.3287V10.3867H65.0848C65.2738 10.3867 65.4628 10.3233 65.5888 10.26C65.7148 10.1967 65.7778 10.07 65.7778 9.94332C65.7778 9.81665 65.7148 9.68999 65.5888 9.62665C65.4628 9.56332 65.2738 9.49999 65.0217 9.49999C64.6437 9.49999 64.2027 9.56332 63.7616 9.75332L63.4466 8.92999C64.0137 8.67665 64.5807 8.54999 65.0848 8.54999C65.4628 8.54999 65.7778 8.61332 66.0928 8.67665C66.4079 8.73999 66.5969 8.92999 66.7859 9.05665C66.9749 9.24665 67.0379 9.43665 67.0379 9.68999C67.0379 9.87999 66.9749 10.07 66.8489 10.1967C66.7229 10.3233 66.5969 10.45 66.3449 10.5767C66.5339 10.83 66.7229 10.9567 66.9119 11.1467Z" fill="black"/>
        <path d="M70.9443 9.18329C71.2593 9.49996 71.4484 9.94329 71.4484 10.5766V12.92H70.3142V12.4133C70.0622 12.7933 69.6842 12.9833 69.0541 12.9833C68.7391 12.9833 68.4871 12.92 68.2351 12.7933C67.983 12.6666 67.857 12.54 67.731 12.35C67.605 12.16 67.542 11.97 67.542 11.7166C67.542 11.3366 67.668 11.02 67.983 10.83C68.2981 10.64 68.7391 10.5133 69.3062 10.5133H70.2512C70.2512 10.26 70.1882 10.07 69.9992 9.94329C69.8732 9.81662 69.6212 9.75329 69.3062 9.75329C69.1171 9.75329 68.8651 9.81662 68.6761 9.87996C68.4871 9.94329 68.2981 10.07 68.172 10.1333L67.731 9.30996C67.983 9.18329 68.2351 9.05662 68.5501 8.92996C68.8651 8.86662 69.1801 8.80329 69.4952 8.80329C70.1252 8.73996 70.6293 8.92996 70.9443 9.18329ZM69.9362 12.0333C70.0622 11.97 70.1882 11.78 70.2512 11.59V11.1466H69.4322C68.9281 11.1466 68.6761 11.3366 68.6761 11.6533C68.6761 11.78 68.7391 11.9066 68.8651 12.0333C68.9911 12.0966 69.1171 12.16 69.3692 12.16C69.6212 12.16 69.8102 12.0966 69.9362 12.0333Z" fill="black"/>
        <path d="M78.6941 8.80328V12.92H72.4565V8.80328H73.6537V11.9066H74.9768V8.80328H76.1739V11.9066H77.497V8.80328H78.6941ZM79.2612 11.9066V13.68H78.1901V12.8566H77.497V11.9066H79.2612Z" fill="black"/>
        <path d="M79.8281 8.80328H81.0252V11.21L82.9784 8.80328H84.0495V12.92H82.8524V10.5133L80.8992 12.92H79.8281V8.80328Z" fill="black"/>
        <path d="M88.6491 9.81664H87.2629V12.92H86.0658V9.81664H84.6797V8.86664H88.5861V9.81664H88.6491Z" fill="black"/>
        <path d="M89.8463 12.73C89.5312 12.54 89.2162 12.2866 89.0272 11.97C88.8382 11.6533 88.7122 11.2733 88.7122 10.8933C88.7122 10.5133 88.8382 10.1333 89.0272 9.81662C89.2162 9.49995 89.4682 9.24662 89.8463 9.05662C90.1613 8.86662 90.6023 8.80328 90.9804 8.80328C91.3584 8.80328 91.7994 8.86662 92.1145 9.05662C92.4295 9.24662 92.7445 9.49995 92.9335 9.81662C93.1226 10.1333 93.2486 10.5133 93.2486 10.8933C93.2486 11.2733 93.1226 11.6533 92.9335 11.97C92.7445 12.2866 92.4925 12.54 92.1145 12.73C91.7994 12.92 91.4214 12.9833 90.9804 12.9833C90.5393 12.9833 90.1613 12.8566 89.8463 12.73ZM91.7364 11.7166C91.9255 11.5266 92.0515 11.21 92.0515 10.8933C92.0515 10.5766 91.9255 10.26 91.7364 10.07C91.5474 9.87995 91.2954 9.75328 90.9804 9.75328C90.6653 9.75328 90.4133 9.87995 90.2243 10.07C90.0353 10.26 89.9093 10.5766 89.9093 10.8933C89.9093 11.21 90.0353 11.5266 90.2243 11.7166C90.4133 11.9066 90.6653 12.0333 90.9804 12.0333C91.2954 11.97 91.5474 11.9066 91.7364 11.7166Z" fill="black"/>
        <path d="M94.0046 8.8033H95.2018V11.21L97.1549 8.8033H98.226V12.92H97.0289V10.5133L95.0757 12.92H94.0046V8.8033ZM94.7607 7.21997H95.5168C95.5168 7.40997 95.5798 7.53664 95.6428 7.6633C95.7058 7.78997 95.8948 7.78997 96.0838 7.78997C96.2728 7.78997 96.3989 7.72664 96.5249 7.6633C96.6509 7.53664 96.6509 7.40997 96.6509 7.21997H97.407C97.407 7.97997 96.9659 8.4233 96.0838 8.4233C95.2018 8.35997 94.7607 7.97997 94.7607 7.21997Z" fill="black"/>
        <path d="M41.9619 25.65L42.214 24.89H41.4579C41.3949 24.89 40.8908 24.89 40.4498 24.5733C40.5128 24.5733 40.5128 24.5733 40.5758 24.5733C41.0168 24.5733 41.5209 24.32 41.7099 23.8767L42.0249 23.1167C41.5839 23.1167 41.2059 23.0533 41.2059 23.0533C41.2059 23.0533 40.8908 22.99 40.5758 22.6733C40.3238 22.42 40.0088 22.2933 39.6937 22.2933C39.5677 22.2933 39.4417 22.2933 39.3157 22.3567C39.3157 22.2933 39.3787 22.23 39.3787 22.1667C39.5047 21.47 39.0637 20.9633 39.0637 20.9633L38.4966 20.2667L38.1186 21.09C38.1186 21.09 38.0556 21.28 37.8666 21.4067C37.8035 21.1533 37.6775 20.9 37.4255 20.6467C36.9215 20.14 36.3544 20.0767 36.0394 20.0767C35.9134 20.0767 35.7874 20.0767 35.7874 20.0767L35.0313 20.2667C35.0943 20.14 35.1573 19.8233 35.2833 19.57L35.6614 19L34.7163 19.1267L34.4012 18.4933L33.8342 18.81L33.2671 18.24L32.7001 18.81L32.07 18.4933L31.755 19.1267L30.8099 19L31.1879 19.57C31.314 19.8233 31.44 20.0767 31.44 20.2667L30.7469 20.14C30.6839 20.14 30.6209 20.14 30.4949 20.14C30.1799 20.14 29.6128 20.2033 29.1088 20.71C28.8567 20.9633 28.7307 21.28 28.6677 21.47C28.4787 21.4067 28.4157 21.1533 28.4157 21.1533L28.0377 20.33L27.4706 21.0267C27.4076 21.09 27.0296 21.5967 27.1556 22.23C27.1556 22.2933 27.1556 22.3567 27.2186 22.42C27.0926 22.3567 26.9666 22.3567 26.8405 22.3567C26.5255 22.3567 26.2105 22.4833 25.9585 22.7367C25.6434 23.1167 25.3284 23.1167 25.3284 23.1167C25.3284 23.1167 25.0134 23.18 24.5093 23.18L24.8244 23.94C25.0134 24.32 25.4544 24.6367 25.9585 24.6367C26.0215 24.6367 26.0215 24.6367 26.0845 24.6367C25.6434 24.9533 25.1394 24.9533 25.0764 24.9533H24.3203L24.5723 25.7133C24.6983 26.0933 25.0764 26.7267 25.8325 26.79C25.7694 27.1067 25.5804 27.55 25.1394 27.6767L24.5723 27.8667L24.8874 28.4367C25.0764 28.7533 25.5174 29.07 26.0845 29.07C26.2105 29.07 26.3365 29.07 26.4625 29.0067C26.4625 29.1333 26.5255 29.26 26.5885 29.3867C26.7775 29.8933 26.5885 30.2733 26.5885 30.2733L26.2735 30.9067L26.9036 31.0967C26.9036 31.0967 27.0926 31.16 27.3446 31.16C27.4706 31.16 27.5336 31.16 27.6596 31.0967C27.7226 31.0967 27.7856 31.0333 27.8486 31.0333C27.9116 31.16 28.0377 31.2867 28.1637 31.4133C28.6047 31.8567 29.1718 32.0467 29.9278 32.0467H30.4319L29.3608 32.49L30.1799 32.87C30.4949 32.9967 30.8099 33.1867 31.1879 33.3133L31.0619 33.5667L31.377 33.6933C31.377 33.6933 31.944 33.9467 32.8891 34.01C32.8891 34.01 33.0781 34.01 33.2041 34.01C33.3301 34.01 33.5192 34.01 33.5192 34.01C34.4012 33.9467 34.9683 33.6933 34.9683 33.6933L35.2833 33.5667V33.44C35.6614 33.3133 36.0394 33.1233 36.2914 32.9967L37.1105 32.6167L36.0394 32.1733H36.5434C37.2995 32.1733 37.8666 31.9833 38.3076 31.54C38.4336 31.4133 38.4966 31.2867 38.6226 31.16C38.6856 31.16 38.7486 31.2233 38.8116 31.2233C38.9377 31.2233 39.0007 31.2867 39.1267 31.2867C39.3787 31.2867 39.5677 31.2233 39.5677 31.2233L40.1978 31.0333L39.8827 30.4C39.8827 30.4 39.6937 30.02 39.8827 29.5133C39.9457 29.3867 39.9457 29.26 40.0088 29.1333C40.1348 29.1333 40.2608 29.1967 40.3868 29.1967C41.1429 29.1967 41.5209 28.69 41.5839 28.5633L41.8989 27.9933L41.3319 27.74C40.9538 27.55 40.7648 27.17 40.6388 26.8533C41.4579 26.6633 41.8359 26.03 41.9619 25.65Z" fill="white"/>
        <path d="M33.2669 20.4567C32.6369 20.4567 32.1958 20.6467 32.0698 20.9L33.2669 21.3433L34.464 20.9C34.338 20.6467 33.897 20.4567 33.2669 20.4567Z" fill="white"/>
        <path d="M33.267 32.8067C32.889 32.8067 32.3849 32.7433 32.1329 32.68L31.8179 33.5033C32.0069 33.5667 32.7 33.6933 33.267 33.6933C33.8341 33.6933 34.5271 33.5667 34.7161 33.5033L34.4011 32.68C34.1491 32.68 33.645 32.8067 33.267 32.8067Z" fill="white"/>
        <path d="M35.5352 31.9833C35.2832 32.11 34.8421 32.3 34.5271 32.3633L34.7791 33.06C35.2202 32.9333 35.5982 32.8067 35.9132 32.6167L35.4092 32.4267L35.5352 31.9833Z" fill="white"/>
        <path d="M30.9989 31.9833L31.1249 32.49L30.6208 32.68C30.9359 32.8067 31.3139 32.9967 31.755 33.1233L32.007 32.4267C31.6919 32.3 31.1879 32.11 30.9989 31.9833Z" fill="white"/>
        <path d="M33.267 19.6966C33.708 19.6966 34.2121 19.8233 34.5271 20.0133C34.5901 19.8866 34.5901 19.76 34.6531 19.6333H34.5271H34.4011L34.3381 19.5066L34.1491 19.1266L33.834 19.3166L33.708 19.38L33.582 19.2533L33.204 18.9366L32.8259 19.2533L32.6999 19.38L32.5739 19.3166L32.2589 19.1266L32.0699 19.5066L32.1329 19.6333H32.0069H31.8809C31.9439 19.76 32.0069 19.8866 32.0069 20.0133C32.3219 19.8233 32.7629 19.6966 33.267 19.6966Z" fill="white"/>
        <path d="M40.3238 24.0033C40.3868 24.0033 40.4498 24.0033 40.5128 24.0033C40.7648 24.0033 41.0168 23.8133 41.1429 23.6233C41.1429 23.6233 40.6388 23.6233 40.1348 23.0533C39.9458 22.8633 39.8197 22.8633 39.6307 22.8633C39.3787 22.8633 39.2527 22.99 39.2527 22.99C39.8827 23.37 40.0088 23.8767 40.3238 24.0033Z" fill="white"/>
        <path d="M25.9584 24.0666C26.0214 24.0666 26.0844 24.0666 26.1474 24.0666C26.5255 23.94 26.6515 23.4333 27.2815 23.0533C27.2815 23.0533 27.0925 22.9266 26.9035 22.9266C26.7775 22.9266 26.5885 22.99 26.3995 23.1166C25.8954 23.6233 25.3914 23.6866 25.3914 23.6866C25.4544 23.8766 25.7064 24.0666 25.9584 24.0666Z" fill="white"/>
        <path d="M40.5127 26.22C41.2058 26.22 41.3948 25.5233 41.3948 25.5233C41.2688 25.5233 40.3237 25.5233 39.6306 24.6367C39.1896 24.0667 38.8116 23.56 38.0555 23.37H37.9925V23.3067C37.9925 23.18 38.0555 23.1167 38.2445 22.99C39.2526 22.3567 38.5595 21.47 38.5595 21.47C38.5595 21.47 38.2445 22.1667 37.6145 22.1667H37.5514C37.4884 22.1667 37.4254 22.1667 37.3624 22.1667H37.2364C37.2364 22.1667 37.4254 21.66 36.9844 21.2167C36.6694 20.8367 36.2283 20.8367 35.9763 20.8367C35.8503 20.8367 35.7873 20.8367 35.7873 20.8367C36.0393 21.1533 36.1653 21.5967 35.9133 21.9133C35.6613 22.1667 35.1572 22.1667 35.1572 22.5467C35.1572 22.7367 35.2832 22.9267 35.5983 23.0533C36.4173 23.56 37.2364 24.2567 37.5514 25.1433C37.9925 26.2833 37.4884 27.0433 36.7954 27.4867C36.7954 27.4867 36.9844 27.6767 37.2994 27.6767C37.3624 27.6767 37.4254 27.6767 37.4884 27.6767C38.1185 27.6767 38.4965 27.36 38.4965 27.36C38.4965 27.36 38.4335 27.8033 38.1185 28.1833C37.8035 28.5633 37.3624 28.7533 36.7324 28.7533C36.7324 28.7533 36.7324 29.07 36.9844 29.3233C37.1734 29.5133 37.5514 29.5133 37.5514 29.5133C37.5514 29.5133 36.7954 29.64 36.6694 30.78C36.6064 31.4133 36.4803 31.6033 36.4803 31.6033C38.2445 31.6033 38.2445 30.0833 38.2445 30.0833C38.2445 30.0833 38.3705 30.5267 38.8746 30.6533C38.9376 30.6533 39.0006 30.6533 39.0636 30.6533C39.2526 30.6533 39.3786 30.59 39.3786 30.59C39.3786 30.59 39.1266 30.02 39.3786 29.26C39.5676 28.6267 39.5676 28.12 39.5676 28.12C39.5676 28.12 39.8197 28.5 40.3867 28.5C40.8908 28.5 41.0798 28.12 41.0798 28.12C39.8827 27.6133 40.0087 26.03 40.0087 26.03C40.0087 26.03 40.1977 26.1567 40.5127 26.22ZM40.1347 27.8667C39.6306 27.6133 39.3156 26.98 39.2526 26.79C39.1896 28.0567 38.5595 28.9433 37.8665 29.7667C37.4884 30.21 37.3624 30.6533 37.3624 30.6533C37.3624 30.6533 37.4254 30.1467 37.7405 29.7667C38.4335 28.9433 39.0636 27.93 39.0636 26.79C39.1266 25.9667 38.8746 25.3333 38.5595 24.7633C38.7486 25.3333 38.6856 26.03 38.1185 26.6633C38.1185 26.6633 39.3156 25.2067 37.6145 23.6867C36.9214 23.1167 36.1653 22.7367 35.7873 22.4833C37.1734 22.9267 37.8665 22.42 37.8665 22.42C37.4884 22.8 36.9214 22.8 36.5434 22.7367C36.6694 22.8 36.7324 22.8633 36.8584 22.8633C38.0555 23.4967 39.1266 24.5733 39.2526 26.03C39.5676 27.4867 40.1347 27.8667 40.1347 27.8667Z" fill="white"/>
        <path d="M28.9198 29.45C28.9198 29.45 29.3608 29.3867 29.4868 29.26C29.7388 29.0066 29.7388 28.69 29.7388 28.69C29.1088 28.69 28.6677 28.4367 28.3527 28.12C28.0377 27.74 27.9747 27.2966 27.9747 27.2966C27.9747 27.2966 28.2897 27.6133 28.9828 27.6133C29.0458 27.6133 29.1088 27.6133 29.1718 27.6133C29.4868 27.6133 29.6758 27.4233 29.6758 27.4233C28.9828 26.98 28.5417 26.22 28.9198 25.08C29.2348 24.1933 30.0539 23.4966 30.8729 22.99C31.125 22.8 31.314 22.61 31.314 22.4833C31.314 22.1033 30.7469 22.1033 30.5579 21.85C30.3059 21.5333 30.4319 21.09 30.6839 20.7733C30.6839 20.7733 30.6209 20.7733 30.4949 20.7733C30.2429 20.7733 29.8649 20.8367 29.4868 21.1533C29.0458 21.5967 29.2348 22.1033 29.2348 22.1033H29.1088C29.0458 22.1033 28.9828 22.1033 28.9198 22.1033C28.9198 22.1033 28.9198 22.1033 28.8568 22.1033C28.2267 22.1033 27.9117 21.4066 27.9117 21.4066C27.9117 21.4066 27.2186 22.23 28.2267 22.9266C28.4157 23.0533 28.4787 23.1166 28.4787 23.2433V23.3066H28.4157C27.6597 23.4966 27.2816 24.0033 26.8406 24.5733C26.1475 25.46 25.2024 25.46 25.0764 25.46C25.0764 25.46 25.3284 26.1566 25.9585 26.1566C26.2735 26.1566 26.3995 26.03 26.3995 26.03C26.3995 26.03 26.5255 27.6133 25.3284 28.12C25.3284 28.12 25.5175 28.5 26.0215 28.5C26.5886 28.5 26.8406 28.12 26.8406 28.12C26.8406 28.12 26.7776 28.5633 27.0296 29.26C27.2816 30.02 27.0296 30.59 27.0296 30.59C27.0296 30.59 27.1556 30.6533 27.3446 30.6533C27.4076 30.6533 27.4706 30.6533 27.5336 30.6533C28.0377 30.5267 28.1637 30.0833 28.1637 30.0833C28.1637 30.0833 28.1007 31.6033 29.9279 31.6033C29.9279 31.6033 29.8019 31.4133 29.7388 30.78C29.6758 29.5766 28.9198 29.45 28.9198 29.45ZM28.6047 29.7033C27.9117 28.88 27.2816 27.9933 27.2186 26.7267C27.1556 26.98 26.8406 27.6133 26.3365 27.8033C26.3365 27.8033 26.9666 27.4233 27.2186 26.03C27.4076 24.5733 28.4787 23.4966 29.6128 22.8633C29.7388 22.8 29.8019 22.7367 29.9279 22.7367C29.6128 22.8 28.9828 22.8 28.5417 22.42C28.5417 22.42 29.2348 22.9266 30.6209 22.4833C30.2429 22.7366 29.4868 23.1167 28.7938 23.6867C27.0926 25.1433 28.3527 26.6633 28.3527 26.6633C27.7227 26.03 27.7227 25.3333 27.9117 24.7633C27.5966 25.3333 27.4076 25.9666 27.4076 26.79C27.4706 27.93 28.1007 28.9433 28.7308 29.7667C29.0458 30.1467 29.1088 30.6533 29.1088 30.6533C29.1088 30.6533 28.9828 30.1467 28.6047 29.7033Z" fill="white"/>
        <path d="M31.944 23.8766C31.944 23.8766 32.007 23.94 32.007 24.0033C32.007 24.0666 32.07 24.0666 32.07 24.13C32.07 24.1933 32.133 24.1933 32.133 24.2566C32.385 24.7 32.8261 24.9533 33.1411 24.9533C33.5191 24.9533 33.8972 24.7 34.1492 24.2566C34.1492 24.1933 34.2122 24.13 34.2122 24.13C34.2122 24.0666 34.2752 24.0666 34.2752 24.0033C34.2752 23.94 34.3382 23.94 34.3382 23.8766C34.4642 23.75 34.6532 23.6233 34.8423 23.56L34.7792 23.4966L34.4012 23.3066L34.0232 23.1166L33.0151 23.6866L32.007 23.1166L31.629 23.3066L31.5029 23.4966L31.4399 23.56C31.629 23.6233 31.755 23.6866 31.944 23.8766C31.944 23.8133 31.944 23.8133 31.944 23.8766ZM32.8261 23.8133H33.2671H33.7081V24.0666C33.5821 23.94 33.3931 23.94 33.3931 23.94V24.3833C33.3931 24.3833 33.3931 24.5733 33.4561 24.7H33.2671H33.0781C33.1411 24.6366 33.1411 24.3833 33.1411 24.3833V23.94C33.1411 23.94 32.9521 23.94 32.8261 24.0666V23.8133Z" fill="white"/>
        <path d="M33.1409 23.2433V21.5333L32.0698 21.1533L32.3849 22.8L33.1409 23.2433ZM32.9519 21.9767V22.23H32.8889C32.8889 22.23 32.8259 22.23 32.6999 22.1033C32.4479 21.9133 32.4479 21.7867 32.4479 21.7867L32.9519 21.9767Z" fill="white"/>
        <path d="M34.1492 22.8L34.4012 21.1533L33.3301 21.5333V23.2433L34.1492 22.8ZM33.5821 21.9767L34.0861 21.7867C34.0861 21.7867 34.0861 21.9133 33.8341 22.1033C33.7081 22.23 33.6451 22.23 33.6451 22.23H33.5821V21.9767Z" fill="white"/>
        <path d="M31.6289 27.17C31.7549 27.2333 31.8809 27.2333 31.9439 27.2333V27.17C31.9439 27.1066 31.9439 26.98 31.9439 26.9166C31.8809 26.9166 31.8179 26.8533 31.8179 26.79C31.8179 26.6 31.7549 26.6 31.6919 26.6C31.5659 26.6 31.4399 26.6633 31.4399 26.7266C31.3768 26.9166 31.5029 27.1066 31.6289 27.17Z" fill="white"/>
        <path d="M34.023 26.2833C33.834 26.4733 33.456 26.8533 33.3929 26.9167H32.1328C32.1328 27.0433 32.1328 27.17 32.0698 27.2333C32.0698 27.2333 32.0698 27.2333 32.0698 27.2967L33.519 27.55C33.645 27.4233 34.086 27.1067 34.275 27.0433C34.149 26.8533 34.149 26.6633 34.149 26.5367C34.149 26.41 34.086 26.3467 34.023 26.2833Z" fill="white"/>
        <path d="M34.2122 24.7633C33.8971 25.0167 33.6451 25.1433 33.3931 25.1433C33.3301 25.1433 33.3301 25.1433 33.2671 25.1433C33.2041 25.1433 33.2041 25.1433 33.1411 25.1433C33.0781 25.1433 33.0781 25.1433 33.0151 25.1433C33.0151 25.2067 32.9521 25.3333 33.0151 25.46C33.0781 25.5867 33.1411 25.65 33.3301 25.7133H33.3931V25.7767C33.3931 25.7767 33.3931 26.1567 33.7711 26.2833C33.8341 26.22 33.8971 26.1567 33.9601 26.0933C33.8971 25.9033 33.8971 25.7133 34.0232 25.5867C34.0232 25.5867 33.9601 26.0933 34.3382 26.2833H34.4012V26.3467C34.4012 26.3467 34.2752 26.8533 34.7162 26.98H34.7792L34.7162 27.0433C34.7162 27.0433 34.5272 27.4867 34.9682 27.74H35.9133V26.98C35.5983 26.9167 35.4723 26.6633 35.4093 26.4733C35.2833 26.4733 35.1573 26.41 35.0312 26.2833C34.8422 26.03 35.0312 25.7767 35.0312 25.7767C35.0312 25.7767 35.0312 26.03 35.1573 26.1567C35.2203 26.22 35.3463 26.2833 35.4723 26.2833H35.5353V26.3467C35.5353 26.3467 35.5983 26.7267 35.9133 26.7267V25.2067C35.9133 24.9533 35.9763 24.7633 36.0393 24.51L34.2122 24.7633Z" fill="white"/>
        <path d="M31.6919 25.46V26.41H31.8179L32.0699 25.5234L31.9439 25.27L31.6919 25.46Z" fill="white"/>
        <path d="M34.6533 29.83C34.8423 29.8933 34.9053 30.4633 35.1573 30.5267H35.2203C35.2833 30.5267 35.3463 30.4633 35.4094 30.4C35.4094 30.4 35.2833 30.1467 35.1573 30.02C35.0313 29.83 34.9053 29.5767 34.6533 29.5767C34.5903 29.5767 34.5273 29.64 34.5273 29.64C34.4013 29.5767 34.3383 29.5767 34.2122 29.5767C34.0232 29.5767 33.8972 29.64 33.8342 29.64L33.2672 29.5767C33.2041 29.5767 33.0781 29.45 33.0781 29.45V29.3867C33.0781 28.88 32.7001 28.69 32.5741 28.69C32.5741 28.69 32.5741 28.6267 32.5741 28.5633L32.4481 28.7533L31.881 28.5L32.1961 28.88L31.944 29.1333C31.881 29.1967 31.944 29.1967 31.944 29.26L32.07 29.3867L32.1961 29.3233C32.1961 29.3233 32.1961 29.3233 32.2591 29.3233C32.3221 29.3233 32.3851 29.3233 32.3851 29.3233C32.4481 29.3233 32.5111 29.3233 32.5111 29.26C32.5111 29.45 32.3221 29.7667 32.4481 30.02L32.5111 30.21L32.007 30.1467L31.755 30.59C31.692 30.7167 31.692 30.9067 31.755 30.97L31.818 31.0967C31.818 31.0967 31.944 30.97 32.007 30.8433L31.944 30.78C31.881 30.7167 31.881 30.7167 31.944 30.6533L32.07 30.4L32.7001 30.5267L32.7631 30.4633C32.8261 30.4 32.8891 30.4 32.9521 30.4H33.0151C33.1411 30.4 33.3302 30.4633 33.5192 30.4633C33.7082 30.4633 33.9602 30.4 34.0232 30.2733C34.2752 30.59 34.7163 30.6533 34.6533 30.8433L34.5273 31.4133C34.5903 31.4133 34.6533 31.4133 34.7793 31.4133L34.9053 30.8433C34.9053 30.78 34.9053 30.7167 34.9053 30.7167C34.8423 30.6533 34.7793 30.59 34.7163 30.4633C34.6533 30.3367 34.6533 30.21 34.5903 30.02C34.5273 29.83 34.5903 29.83 34.6533 29.83ZM32.2591 28.9433C32.1961 28.88 32.2591 28.8167 32.2591 28.8167C32.3221 28.88 32.3221 28.88 32.2591 28.9433C32.3221 28.9433 32.3221 28.9433 32.2591 28.9433Z" fill="white"/>
        <path d="M31.44 30.3366C31.44 30.3366 31.629 30.2733 31.692 30.21V30.1466C31.692 30.0833 31.692 30.0833 31.692 30.02L31.944 29.8933L32.322 29.9566C32.322 29.9566 32.259 29.8933 32.259 29.7666L31.881 29.7033L31.503 29.8933C31.377 30.02 31.377 30.1466 31.377 30.2733L31.44 30.3366Z" fill="white"/>
        <path d="M34.0862 31.35C34.1492 31.35 34.2122 31.35 34.3382 31.35L34.5272 30.78C34.4012 30.7167 34.2122 30.59 34.0862 30.59C34.1492 30.6534 34.2752 30.78 34.2752 30.8434L34.0862 31.35Z" fill="white"/>
        <path d="M35.9133 27.9933H30.6208V30.02C30.6208 30.8433 31.1879 31.35 32.07 31.35C32.8261 31.35 33.0151 31.35 33.2671 31.6667C33.4561 31.4767 33.5821 31.4133 33.8972 31.4133L34.0862 30.9067L33.8341 30.59C33.7081 30.6533 33.6451 30.6533 33.4561 30.6533C33.3301 30.6533 33.1411 30.6533 32.9521 30.59H32.8891L32.8261 30.6533L32.763 30.59H32.637L32.133 30.4633L32.07 30.59L32.133 30.6533V30.7167C32.07 30.8433 31.944 30.97 31.944 31.0333L31.818 31.16L31.6289 31.0333L31.5659 30.9067C31.5029 30.78 31.4399 30.6533 31.5029 30.4633L31.3769 30.5267L31.3139 30.4L31.2509 30.2733C31.1879 30.0833 31.1879 29.83 31.4399 29.7033L31.881 29.45L32.259 29.5133C32.259 29.45 32.259 29.3233 32.322 29.3233L32.07 29.3867L31.881 29.26C31.881 29.26 31.818 29.1967 31.881 29.07L32.07 28.7533L31.5659 28.0567L32.385 28.3733L32.448 28.31L32.574 28.1833L32.7 28.31C32.763 28.3733 32.763 28.3733 32.763 28.4367C33.0151 28.5 33.3931 28.7533 33.4561 29.1967L33.3301 29.26C33.3301 29.3233 33.3931 29.3233 33.3931 29.3233L33.9602 29.3867H34.0232C34.0862 29.3867 34.2122 29.3233 34.3382 29.3233C34.4642 29.3233 34.5272 29.3233 34.6532 29.3867C34.7162 29.3867 34.7162 29.3867 34.7792 29.3867C35.0943 29.3867 35.2203 29.64 35.3463 29.83C35.3463 29.8933 35.4093 29.8933 35.4093 29.8933C35.5353 30.02 35.6613 30.2733 35.6613 30.2733L35.7243 30.4L35.6613 30.4633C35.5983 30.5267 35.5353 30.59 35.3463 30.59C35.2833 30.59 35.2833 30.59 35.2203 30.59C35.1573 30.59 35.1573 30.59 35.1573 30.59C35.1573 30.59 35.1573 30.6533 35.1573 30.7167L35.0313 31.2233C35.6613 31.0967 36.0393 30.59 36.0393 29.9567L35.9133 27.9933Z" fill="#FFDD2D"/>
        <path d="M30.6209 27.8667H34.7793C34.5902 27.6767 34.5902 27.36 34.6533 27.2333C34.5902 27.2333 34.5272 27.17 34.5272 27.1067C34.3382 27.2333 33.8972 27.6133 33.7712 27.6767L32.133 27.36H32.07C32.007 27.36 31.944 27.36 31.881 27.36C31.881 27.4233 31.818 27.4867 31.755 27.4867C31.692 27.4867 31.692 27.4867 31.629 27.4233C31.629 27.36 31.566 27.36 31.629 27.2967V27.2333C31.44 27.1067 31.3139 26.8533 31.377 26.6C31.377 26.6 31.377 26.6 31.44 26.5367H31.3139C31.2509 26.5367 31.2509 26.4733 31.2509 26.4733C31.2509 26.41 31.3139 26.41 31.3139 26.41L31.566 26.4733V25.46L32.007 25.0167L32.259 25.5867L32.007 26.5367L32.259 26.6C32.322 26.6 32.322 26.6633 32.322 26.6633C32.322 26.7267 32.259 26.7267 32.259 26.7267L32.007 26.6C32.007 26.6633 32.07 26.6633 32.133 26.6633H33.3931C33.4561 26.6 33.5822 26.4733 33.7082 26.3467C33.3931 26.22 33.2671 25.9667 33.2671 25.7767C33.0781 25.7133 32.9521 25.5867 32.8891 25.46C32.8261 25.27 32.8261 25.08 32.8891 25.0167C32.7001 24.9533 32.5741 24.8267 32.385 24.7H30.4949C30.5579 24.89 30.6209 25.1433 30.6209 25.3967V27.8667Z" fill="#FFDD2D"/>
        <path d="M32.3219 28.88C32.2589 28.88 32.2589 28.88 32.3219 28.88C32.2589 28.9433 32.2589 29.0067 32.3219 29.0067C32.3219 28.9433 32.3219 28.9433 32.3219 28.88Z" fill="black"/>
        <path d="M35.9132 32.49L35.5982 32.3633L35.6612 32.0466L35.7242 31.73C35.7242 31.73 35.1571 32.0466 34.4011 32.2366C34.275 32.3 34.086 32.3 34.086 32.3V32.5533C34.086 32.5533 33.708 32.6166 33.267 32.6166C32.8259 32.6166 32.4479 32.5533 32.4479 32.5533V32.3C32.4479 32.3 32.2589 32.3 32.0698 32.2366C31.3138 32.0466 30.7467 31.73 30.7467 31.73L30.8097 32.0466L30.8727 32.3633L30.5577 32.49L30.2427 32.6166C30.6207 32.8066 31.1878 33.06 31.6918 33.1866L31.5658 33.5033C31.5658 33.5033 32.1959 33.82 33.267 33.82C34.3381 33.82 34.9681 33.5033 34.9681 33.5033L34.8421 33.1866C35.3461 33.06 35.8502 32.8066 36.2912 32.6166L35.9132 32.49ZM30.6207 32.6166L31.1248 32.4266L30.9987 31.92C31.2508 32.0466 31.6918 32.2366 32.0068 32.3L31.7548 32.9966C31.3138 32.9333 30.9357 32.8066 30.6207 32.6166ZM33.267 33.63C32.6999 33.63 32.0068 33.5033 31.8178 33.44L32.1328 32.6166C32.3849 32.68 32.8889 32.7433 33.267 32.7433C33.645 32.7433 34.149 32.68 34.4011 32.6166L34.7161 33.44C34.5271 33.5033 33.834 33.63 33.267 33.63ZM34.7791 33.06L34.5271 32.3633C34.8421 32.3 35.2831 32.11 35.5352 31.9833L35.4092 32.49L35.9132 32.68C35.5982 32.8066 35.2201 32.9333 34.7791 33.06Z" fill="black"/>
        <path d="M33.2671 19.8867C33.8971 19.8867 34.4012 20.0767 34.6532 20.33C34.6532 20.33 34.7162 19.8233 35.0313 19.38L34.5272 19.4433L34.2752 18.8733L33.7711 19.1267L33.2671 18.62L32.763 19.1267L32.259 18.8733L32.007 19.4433L31.5029 19.38C31.755 19.8233 31.881 20.33 31.881 20.33C32.133 20.0767 32.637 19.8867 33.2671 19.8867ZM31.944 19.6333H32.07L32.133 19.5067L32.322 19.1267L32.637 19.3167L32.763 19.38L32.8891 19.2533L33.2671 18.9367L33.6451 19.2533L33.7711 19.38L33.8971 19.3167L34.2122 19.1267L34.4012 19.5067L34.4642 19.6333H34.5902H34.7162C34.6532 19.76 34.5902 19.8867 34.5902 20.0133C34.2122 19.8233 33.7711 19.6967 33.3301 19.6967C32.8891 19.6967 32.385 19.8233 32.07 20.0133C32.007 19.8867 32.007 19.76 31.944 19.6333Z" fill="black"/>
        <path d="M40.5756 26.41C41.3947 26.41 41.6467 25.5867 41.6467 25.5867L41.7097 25.27H41.3947C41.2687 25.27 40.3866 25.27 39.7565 24.4467L39.6935 24.3833C39.2525 23.8767 38.8744 23.37 38.1814 23.1167L38.2444 23.0533C38.6224 22.8 38.8114 22.4833 38.8744 22.1667C38.9375 21.66 38.6224 21.2167 38.6224 21.2167L38.3704 20.9633L38.2444 21.28C38.2444 21.28 37.9924 21.85 37.4883 21.85H37.4253C37.3623 21.85 37.3623 21.85 37.2993 21.85C37.2993 21.5967 37.2993 21.28 36.9213 20.9C36.5432 20.52 36.0392 20.4567 35.7872 20.4567C35.6612 20.4567 35.5351 20.4567 35.5351 20.4567L35.2201 20.52L35.4091 20.7733C35.5981 20.9633 35.7242 21.4067 35.5351 21.5967C35.4721 21.66 35.3461 21.7233 35.2831 21.7867C35.0311 21.9133 34.7161 22.04 34.7161 22.42C34.7161 22.6733 34.9051 22.9267 35.2201 23.1167C36.2282 23.75 36.8583 24.3833 37.1103 25.1433C37.5513 26.2833 36.9843 26.9167 36.4802 27.2333L36.2282 27.36L36.4172 27.55C36.4172 27.55 36.6692 27.8033 37.0473 27.8033C37.1103 27.8033 37.1733 27.8033 37.2363 27.8033C37.4883 27.8033 37.6773 27.74 37.8664 27.74C37.8033 27.8033 37.7403 27.93 37.6773 27.9933C37.3623 28.31 36.9843 28.5 36.4802 28.5H36.5432V28.69C36.5432 28.7533 36.5432 29.07 36.8583 29.3867C36.9213 29.45 36.9843 29.45 37.0473 29.5133C36.7953 29.7033 36.5432 30.0833 36.5432 30.7167C36.4802 31.2233 36.3542 31.4133 36.3542 31.4133L36.1652 31.73H36.5432C37.1733 31.73 37.6773 31.54 38.0554 31.2233C38.2444 31.0333 38.3704 30.78 38.4334 30.59C38.5594 30.7167 38.6854 30.78 38.8744 30.8433C38.9375 30.8433 39.0005 30.8433 39.1265 30.8433C39.3155 30.8433 39.4415 30.78 39.5045 30.78L39.7565 30.7167L39.6305 30.4633C39.6305 30.4633 39.4415 29.9567 39.6305 29.3233C39.7565 29.0067 39.7565 28.7533 39.8195 28.5633C40.0086 28.6267 40.1976 28.69 40.4496 28.69C41.0796 28.69 41.3317 28.2467 41.3317 28.1833L41.4577 27.9933L41.2057 27.93C40.4496 27.6133 40.3236 26.79 40.2606 26.3467C40.3236 26.41 40.4496 26.41 40.5756 26.41ZM41.1427 28.1833C41.1427 28.1833 40.9536 28.5633 40.4496 28.5633C39.8825 28.5633 39.6305 28.1833 39.6305 28.1833C39.6305 28.1833 39.6935 28.6267 39.4415 29.3233C39.1895 30.0833 39.4415 30.6533 39.4415 30.6533C39.4415 30.6533 39.3155 30.7167 39.1265 30.7167C39.0635 30.7167 39.0005 30.7167 38.9375 30.7167C38.4334 30.59 38.3074 30.1467 38.3074 30.1467C38.3074 30.1467 38.3704 31.6667 36.5432 31.6667C36.5432 31.6667 36.6692 31.4767 36.7322 30.8433C36.7953 29.7033 37.6143 29.5767 37.6143 29.5767C37.6143 29.5767 37.1733 29.5133 37.0473 29.3867C36.7953 29.1333 36.7953 28.8167 36.7953 28.8167C37.4253 28.8167 37.8664 28.5633 38.1814 28.2467C38.4964 27.8667 38.5594 27.4233 38.5594 27.4233C38.5594 27.4233 38.2444 27.74 37.5513 27.74C37.4883 27.74 37.4253 27.74 37.3623 27.74C37.0473 27.74 36.8583 27.55 36.8583 27.55C37.5513 27.1067 37.9924 26.3467 37.6143 25.2067C37.2993 24.32 36.4802 23.6233 35.6612 23.1167C35.4091 22.9267 35.2201 22.7367 35.2201 22.61C35.2201 22.23 35.7872 22.23 35.9762 21.9767C36.2282 21.66 36.1022 21.2167 35.8502 20.9C35.8502 20.9 35.9132 20.9 36.0392 20.9C36.2912 20.9 36.6692 20.9633 37.0473 21.28C37.4883 21.7233 37.2993 22.23 37.2993 22.23H37.4253C37.4883 22.23 37.5513 22.23 37.6143 22.23H37.6773C38.3074 22.23 38.6224 21.5333 38.6224 21.5333C38.6224 21.5333 39.3155 22.3567 38.3074 23.0533C38.1184 23.18 38.0554 23.2433 38.0554 23.37V23.4333H38.1184C38.8744 23.6233 39.2525 24.13 39.6935 24.7C40.3866 25.5867 41.3317 25.5867 41.4577 25.5867C41.4577 25.5867 41.2057 26.2833 40.5756 26.2833C40.2606 26.2833 40.1346 26.1567 40.1346 26.1567C40.1346 26.1567 39.9455 27.6767 41.1427 28.1833Z" fill="black"/>
        <path d="M39.1266 23.2433C39.4416 23.4333 39.6306 23.6233 39.7566 23.8133C39.8826 24.0033 40.0716 24.1933 40.2607 24.2567C40.3237 24.2567 40.4497 24.32 40.5127 24.32C40.8277 24.32 41.2057 24.13 41.3318 23.8133L41.4578 23.56H41.1427C41.1427 23.56 40.7017 23.4967 40.2607 23.0533C40.0716 22.8633 39.8826 22.8 39.6306 22.8C39.3156 22.8 39.1266 22.9267 39.1266 22.99L38.8115 23.18L39.1266 23.2433ZM39.6306 22.9267C39.7566 22.9267 39.9456 22.99 40.1346 23.1167C40.6387 23.6233 41.1427 23.6867 41.1427 23.6867C41.0797 23.8767 40.8277 24.0667 40.5127 24.0667C40.4497 24.0667 40.3867 24.0667 40.3237 24.0667C39.9456 23.94 39.8196 23.4333 39.1896 23.0533C39.2526 23.0533 39.4416 22.9267 39.6306 22.9267Z" fill="black"/>
        <path d="M39.2527 26.03C39.0636 24.5733 37.9925 23.56 36.8584 22.8633C36.7324 22.8 36.6694 22.7366 36.5434 22.7366C36.9214 22.8 37.4885 22.8 37.9295 22.42C37.9295 22.42 37.2365 22.9266 35.8503 22.4833C36.2284 22.7366 36.9844 23.1166 37.6775 23.6866C39.3787 25.2066 38.1816 26.6633 38.1816 26.6633C38.8116 26.03 38.8116 25.3333 38.6226 24.7633C38.9376 25.3333 39.1266 25.9666 39.1266 26.79C39.0636 27.93 38.4336 28.88 37.8035 29.7033C37.4885 30.0833 37.4255 30.59 37.4255 30.59C37.4255 30.59 37.5515 30.1466 37.9295 29.7033C38.6226 28.88 39.2527 27.9933 39.3157 26.7266C39.3787 26.98 39.6937 27.6133 40.1977 27.8033C40.1347 27.8666 39.5677 27.4866 39.2527 26.03Z" fill="black"/>
        <path d="M30.1168 31.4767C30.1168 31.4767 29.9908 31.2867 29.9278 30.78C29.8648 30.1467 29.6127 29.7667 29.4237 29.5767C29.4867 29.5134 29.5497 29.5134 29.6127 29.45C29.9278 29.1334 29.9278 28.7534 29.9278 28.7534V28.5634H29.7388C29.2347 28.5634 28.8567 28.3734 28.5416 28.0567C28.4786 27.9934 28.4156 27.8667 28.3526 27.8034C28.5416 27.8667 28.7307 27.8667 28.9827 27.8667C29.0457 27.8667 29.1087 27.8667 29.1717 27.8667C29.5497 27.8034 29.8018 27.6134 29.8018 27.6134L29.9908 27.4234L29.7388 27.2967C29.2347 26.98 28.6677 26.3467 29.1087 25.2067C29.3607 24.51 29.9908 23.8134 30.9989 23.18C31.3139 22.99 31.5029 22.7367 31.5029 22.4834C31.5029 22.1034 31.1879 21.9767 30.9359 21.85C30.8099 21.7867 30.6838 21.7234 30.6838 21.66C30.4948 21.47 30.6838 21.09 30.8099 20.8367L30.9989 20.5834L30.6838 20.52C30.6838 20.52 30.5578 20.52 30.4318 20.52C30.1798 20.52 29.6758 20.5834 29.2977 20.9634C28.9827 21.28 28.9197 21.66 28.9197 21.9134C28.8567 21.9134 28.8567 21.9134 28.7937 21.9134H28.7307C28.2266 21.9134 27.9746 21.4067 27.9746 21.3434L27.8486 21.0267L27.5966 21.28C27.5966 21.28 27.2815 21.7234 27.3445 22.23C27.4075 22.5467 27.5966 22.8634 27.9746 23.1167C28.0376 23.1167 28.0376 23.18 28.0376 23.18C27.3445 23.4334 26.9665 23.8767 26.5255 24.4467L26.4625 24.51C25.8324 25.3334 24.9503 25.3334 24.8243 25.3334H24.5093L24.5723 25.65C24.5723 25.7134 24.8243 26.4734 25.6434 26.4734H25.7064C25.7694 26.4734 25.8954 26.4734 25.9584 26.4734C25.8954 26.9167 25.7694 27.74 25.0133 28.0567L24.7613 28.12L24.8873 28.31C24.8873 28.31 25.2023 28.8167 25.7694 28.8167C26.0214 28.8167 26.2734 28.7534 26.3995 28.69C26.3995 28.88 26.4625 29.1334 26.5885 29.45C26.8405 30.1467 26.5885 30.59 26.5885 30.59L26.4625 30.8434L26.7145 30.9067C26.7145 30.9067 26.9035 30.97 27.0925 30.97C27.1555 30.97 27.2815 30.97 27.3445 30.97C27.5336 30.9067 27.6596 30.8434 27.7856 30.7167C27.8486 30.9067 27.9746 31.16 28.1636 31.35C28.4786 31.73 28.9827 31.8567 29.6757 31.8567H30.0538L30.1168 31.4767ZM29.9278 31.54C28.1636 31.54 28.1636 30.02 28.1636 30.02C28.1636 30.02 28.0376 30.4634 27.5336 30.59C27.4705 30.59 27.4075 30.59 27.3445 30.59C27.1555 30.59 27.0295 30.5267 27.0295 30.5267C27.0295 30.5267 27.2815 29.9567 27.0295 29.1967C26.8405 28.5634 26.8405 28.0567 26.8405 28.0567C26.8405 28.0567 26.6515 28.5 26.0844 28.5C25.5804 28.5 25.3914 28.12 25.3914 28.12C26.5885 27.6134 26.4625 26.03 26.4625 26.03C26.4625 26.03 26.3364 26.1567 26.0214 26.1567C25.3914 26.1567 25.1393 25.46 25.1393 25.46C25.2653 25.46 26.2104 25.46 26.9035 24.5734C27.3445 24.0034 27.7226 23.4967 28.4786 23.3067H28.5416V23.2434C28.5416 23.1167 28.4786 23.0534 28.2896 22.9267C27.2815 22.2934 27.9746 21.4067 27.9746 21.4067C27.9746 21.4067 28.2896 22.1034 28.9197 22.1034C28.9197 22.1034 28.9197 22.1034 28.9827 22.1034C29.0457 22.1034 29.1087 22.1034 29.1717 22.1034H29.2977C29.2977 22.1034 29.1087 21.5967 29.5497 21.1534C29.8648 20.7734 30.3058 20.7734 30.5578 20.7734C30.6838 20.7734 30.7468 20.7734 30.7468 20.7734C30.4948 21.09 30.3688 21.5334 30.6208 21.85C30.8729 22.1034 31.3769 22.1034 31.3769 22.4834C31.3769 22.6734 31.2509 22.8634 30.9359 22.99C30.1168 23.4967 29.2977 24.1934 28.9827 25.08C28.5416 26.22 29.0457 26.98 29.7388 27.4234C29.7388 27.4234 29.5497 27.6134 29.2347 27.6134C29.1717 27.6134 29.1087 27.6134 29.0457 27.6134C28.4156 27.6134 28.0376 27.2967 28.0376 27.2967C28.0376 27.2967 28.1006 27.74 28.4156 28.12C28.7307 28.5 29.1717 28.69 29.8018 28.69C29.8018 28.69 29.8018 29.0067 29.5497 29.26C29.3607 29.45 28.9827 29.45 28.9827 29.45C28.9827 29.45 29.7388 29.5767 29.8648 30.7167C29.8018 31.35 29.9278 31.54 29.9278 31.54Z" fill="black"/>
        <path d="M25.9583 24.2567C26.0213 24.2567 26.1473 24.2567 26.2103 24.1933C26.4623 24.13 26.5883 23.94 26.7143 23.75C26.8404 23.56 27.0294 23.37 27.3444 23.18L27.6594 22.99L27.3444 22.8C27.3444 22.8 27.0924 22.61 26.8403 22.61C26.5883 22.61 26.3993 22.7367 26.2103 22.8633C25.7693 23.3067 25.3912 23.37 25.3282 23.37H25.0132L25.1392 23.6867C25.2652 24.0667 25.6432 24.2567 25.9583 24.2567ZM26.3363 23.1167C26.5253 22.9267 26.6513 22.9267 26.8403 22.9267C27.0924 22.9267 27.2184 23.0533 27.2184 23.0533C26.5883 23.37 26.4623 23.94 26.0843 24.0667C26.0213 24.0667 25.9583 24.0667 25.8953 24.0667C25.6432 24.0667 25.3912 23.8767 25.2652 23.6867C25.3282 23.6867 25.8323 23.6233 26.3363 23.1167Z" fill="black"/>
        <path d="M27.3445 26.7267C27.2815 25.9034 27.5335 25.27 27.8486 24.7C27.6595 25.27 27.7226 25.9667 28.2896 26.6C28.2896 26.6 27.0925 25.1434 28.7937 23.6234C29.4867 23.0534 30.2428 22.6734 30.6208 22.42C29.2347 22.8634 28.5416 22.3567 28.5416 22.3567C28.9827 22.8 29.6127 22.8 29.9278 22.7367C29.8017 22.8 29.7387 22.8634 29.6127 22.8634C28.4156 23.4967 27.3445 24.5734 27.2185 26.03C26.9665 27.4867 26.3364 27.8034 26.3364 27.8034C26.8405 27.55 27.1555 26.9167 27.2185 26.7267C27.2815 27.9934 27.9116 28.88 28.6046 29.7034C28.9827 30.1467 29.1087 30.59 29.1087 30.59C29.1087 30.59 29.0457 30.0834 28.7306 29.7034C28.0376 28.88 27.4075 27.93 27.3445 26.7267Z" fill="black"/>
        <path d="M32.8259 23.8133V24.0667C32.9519 23.94 33.141 23.94 33.141 23.94V24.3833C33.141 24.3833 33.141 24.5733 33.078 24.7H33.267H33.456C33.393 24.6367 33.393 24.3833 33.393 24.3833V23.94C33.393 23.94 33.582 23.94 33.708 24.0667V23.75H33.267H32.8259V23.8133Z" fill="black"/>
        <path d="M32.637 22.1033C32.763 22.23 32.826 22.23 32.826 22.23H32.8891V21.9767L32.385 21.7867C32.448 21.7867 32.448 21.9133 32.637 22.1033Z" fill="black"/>
        <path d="M33.8341 22.1033C34.0861 21.9133 34.0861 21.7867 34.0861 21.7867L33.582 21.9767V22.23H33.645C33.645 22.23 33.708 22.1667 33.8341 22.1033Z" fill="black"/>
        <path d="M34.7162 20.9633C34.7162 20.52 34.0231 20.2033 33.267 20.2033C32.511 20.2033 31.8179 20.5833 31.8179 20.9633V21.09L32.1329 22.8633L31.8179 23.0533L30.9988 23.4966C30.9988 23.4966 30.8098 23.56 30.7468 23.6233C30.4318 23.8133 30.3688 24.13 30.5578 24.2566C30.6208 24.0033 30.8098 23.75 31.1878 23.75C31.4399 23.75 31.6289 23.8766 31.8179 24.0666C31.8809 24.13 31.8809 24.1933 31.9439 24.2566C32.0069 24.32 32.0069 24.3833 32.0699 24.4466H29.9907C30.1167 24.7633 30.3058 25.08 30.3058 25.3966V29.9566C30.3058 31.0333 31.1248 31.6033 32.0699 31.6033C32.763 31.6033 32.889 31.54 33.267 31.9833C33.6451 31.6033 33.7711 31.6033 34.4641 31.6033C35.4092 31.6033 36.2283 31.0966 36.2283 29.9566V25.3966C36.2283 25.0166 36.3543 24.7 36.5433 24.4466H34.4641C34.5271 24.3833 34.5271 24.32 34.5901 24.2566C34.6532 24.1933 34.6532 24.13 34.7162 24.0666C34.9052 23.8766 35.0942 23.75 35.3462 23.75C35.7242 23.75 35.9133 24.0033 35.9763 24.2566C36.1653 24.13 36.1023 23.8133 35.7873 23.6233C35.7242 23.56 35.5352 23.4966 35.5352 23.4966L34.7162 23.0533L34.4011 22.8633L34.7162 21.09V20.9633ZM32.0699 21.2166L33.141 21.5966V23.3066L32.3849 22.8L32.0699 21.2166ZM32.3219 24.7633C32.511 24.9533 32.7 25.0166 32.826 25.08C32.826 25.1433 32.763 25.3333 32.826 25.5233C32.889 25.65 33.015 25.7766 33.204 25.84C33.204 26.03 33.33 26.2833 33.6451 26.41C33.519 26.5366 33.393 26.6633 33.33 26.7266H32.0699C32.0699 26.7266 32.0069 26.6633 31.9439 26.6633L32.1329 26.7266C32.1959 26.7266 32.1959 26.7266 32.1959 26.6633C32.1959 26.6 32.1959 26.6 32.1329 26.6L31.8809 26.5366L32.1329 25.5866L31.8809 25.0166L31.4399 25.46V26.4733L31.1878 26.41C31.1248 26.41 31.1248 26.41 31.1248 26.4733C31.1248 26.5366 31.1248 26.5366 31.1878 26.5366H31.3138C31.2508 26.5366 31.2508 26.6 31.2508 26.6C31.1878 26.8533 31.3138 27.17 31.5029 27.2333V27.2966C31.5029 27.36 31.5029 27.36 31.5029 27.4233C31.5029 27.4866 31.5659 27.4866 31.6289 27.4866C31.6919 27.4866 31.7549 27.4233 31.7549 27.36C31.8179 27.36 31.8809 27.36 31.9439 27.36H32.0069L33.6451 27.6766C33.7711 27.6133 34.2751 27.2333 34.4011 27.1066C34.4641 27.17 34.4641 27.17 34.5271 27.2333C34.4641 27.4233 34.4641 27.6766 34.6532 27.8666H30.4948V25.46C30.4948 25.2066 30.4318 25.0166 30.3688 24.7633H32.3219ZM34.3381 26.98C34.1491 27.1066 33.7711 27.4233 33.5821 27.4866L32.0699 27.2333C32.0699 27.2333 32.0699 27.2333 32.0699 27.17C32.0699 27.1066 32.1329 26.98 32.1329 26.8533H33.393C33.393 26.8533 33.8341 26.4733 34.0231 26.22C34.0861 26.2833 34.1491 26.3466 34.2121 26.41C34.1491 26.6 34.2121 26.79 34.3381 26.98ZM31.8179 26.7266C31.8809 26.79 31.9439 26.8533 31.9439 26.8533C31.9439 26.9166 31.9439 27.0433 31.9439 27.1066V27.17C31.8809 27.17 31.7549 27.17 31.6289 27.1066C31.5029 27.0433 31.3138 26.8533 31.3769 26.6C31.4399 26.6 31.5659 26.4733 31.6289 26.4733C31.7549 26.6 31.8179 26.6 31.8179 26.7266ZM31.6919 26.41V25.46L31.8809 25.2066L32.0069 25.46L31.7549 26.3466L31.6919 26.41ZM34.2751 31.35C34.2121 31.35 34.1491 31.35 34.0231 31.35L34.2121 30.78C34.2121 30.7166 34.0861 30.59 34.0231 30.5266C34.0861 30.59 34.3381 30.7166 34.4641 30.7166C34.4641 30.78 34.2751 31.35 34.2751 31.35ZM34.8422 30.7166L34.7162 31.2866C34.6532 31.2866 34.5901 31.2866 34.4641 31.2866L34.5901 30.7166C34.6532 30.5266 34.1491 30.4633 33.9601 30.1466C33.8341 30.2733 33.6451 30.3366 33.456 30.3366C33.267 30.3366 33.078 30.3366 32.952 30.2733H32.889C32.826 30.2733 32.763 30.2733 32.7 30.3366L32.637 30.4L32.0069 30.2733L31.8809 30.5266C31.8809 30.59 31.8809 30.59 31.8809 30.6533L31.9439 30.7166C31.9439 30.78 31.7549 30.97 31.7549 30.97L31.6919 30.8433C31.6289 30.78 31.6289 30.59 31.6919 30.4633L31.9439 30.02L32.4479 30.0833L32.3849 29.8933C32.2589 29.64 32.4479 29.3233 32.4479 29.1333C32.4479 29.1966 32.3849 29.1966 32.3219 29.1966C32.2589 29.1966 32.1959 29.1966 32.1959 29.1966C32.1959 29.1966 32.1959 29.1966 32.1329 29.1966L32.0069 29.26L31.8809 29.1333C31.8809 29.1333 31.8809 29.07 31.8809 29.0066L32.1329 28.69L31.8809 28.5L32.3219 28.69L32.4479 28.5C32.511 28.5633 32.4479 28.6266 32.4479 28.6266C32.574 28.6266 32.952 28.8166 32.952 29.3233C32.952 29.3233 32.952 29.3233 32.952 29.3866C32.952 29.45 33.078 29.5133 33.141 29.5133L33.7081 29.5766C33.7711 29.5766 33.8971 29.5133 34.0861 29.5133C34.1491 29.5133 34.2751 29.5133 34.4011 29.5766C34.4011 29.5766 34.4641 29.5133 34.5271 29.5133C34.7792 29.5133 34.9052 29.7666 35.0312 29.9566C35.1572 30.0833 35.2832 30.3366 35.2832 30.3366C35.2202 30.4 35.1572 30.4633 35.0942 30.4633H35.0312C34.7162 30.4 34.7162 29.83 34.5271 29.7666C34.4641 29.7666 34.4641 29.83 34.4641 29.83C34.5271 30.02 34.4641 30.0833 34.5901 30.2733C34.6532 30.4 34.7792 30.4633 34.7792 30.5266C34.8422 30.5266 34.8422 30.6533 34.8422 30.7166ZM31.6289 30.1466V30.21C31.6289 30.2733 31.3769 30.3366 31.3769 30.3366L31.3138 30.21C31.2508 30.0833 31.2508 29.9566 31.4399 29.83L31.7549 29.64L32.1329 29.7033C32.1329 29.83 32.1959 29.8933 32.1959 29.8933L31.8179 29.83L31.5659 29.9566C31.6289 30.02 31.6289 30.0833 31.6289 30.1466ZM34.9052 31.2866L35.0312 30.78C35.0312 30.78 35.0312 30.7166 35.0312 30.6533H35.0942C35.1572 30.6533 35.1572 30.6533 35.2202 30.6533C35.3462 30.6533 35.4722 30.59 35.5352 30.5266L35.5982 30.4633L35.5352 30.3366C35.5352 30.3366 35.4092 30.0833 35.2832 29.9566L35.2202 29.8933C35.0942 29.7033 34.9682 29.45 34.6532 29.45C34.5901 29.45 34.5271 29.45 34.5271 29.45C34.4011 29.3866 34.3381 29.3866 34.2121 29.3866C34.0861 29.3866 33.9601 29.45 33.8971 29.45H33.8341L33.267 29.3866C33.267 29.3866 33.267 29.3866 33.204 29.3233L33.33 29.26C33.267 28.8166 32.889 28.5633 32.637 28.5C32.637 28.4366 32.637 28.4366 32.574 28.3733L32.4479 28.2466L32.3219 28.3733L32.2589 28.5L31.4399 28.1833L31.9439 28.88L31.7549 29.1333C31.6919 29.1966 31.7549 29.3233 31.7549 29.3233L31.9439 29.45L32.1959 29.3866C32.1959 29.45 32.1959 29.5766 32.1329 29.5766L31.7549 29.5133L31.3769 29.7666C31.1878 29.8933 31.1248 30.1466 31.1878 30.3366L31.2508 30.4633L31.3138 30.59L31.4399 30.5266C31.3769 30.7166 31.4399 30.8433 31.5029 30.97L31.5659 31.0966L31.6919 31.2233L31.8179 31.0966C31.8809 31.0333 32.0069 30.9066 32.0069 30.78V30.7166L31.9439 30.6533L32.0069 30.5266L32.511 30.6533H32.637L32.7 30.5266L32.763 30.4633H32.826C33.015 30.5266 33.204 30.5266 33.33 30.5266C33.456 30.5266 33.5821 30.5266 33.7081 30.4633L33.9601 30.78L33.7711 31.2866C33.456 31.2866 33.33 31.35 33.141 31.54C32.889 31.2866 32.7 31.2233 31.9439 31.2233C31.0618 31.2233 30.4948 30.7166 30.4948 29.8933V27.93H35.9133V29.8933C35.9133 30.6533 35.5352 31.0966 34.9052 31.2866ZM36.0393 24.7633C35.9763 24.9533 35.9133 25.2066 35.9133 25.46V26.98C35.5982 26.9166 35.5352 26.6 35.5352 26.6V26.5366H35.4722C35.3462 26.5366 35.2202 26.4733 35.1572 26.41C35.0312 26.2833 35.0312 26.03 35.0312 26.03C35.0312 26.03 34.8422 26.2833 35.0312 26.5366C35.0942 26.6633 35.2202 26.7266 35.4092 26.7266C35.4722 26.9166 35.5982 27.17 35.9133 27.2333V27.8666H34.9682C34.5271 27.6133 34.7162 27.2333 34.7162 27.17L34.7792 27.1066H34.7162C34.2751 26.9166 34.4011 26.4733 34.4011 26.4733V26.41H34.3381C33.9601 26.22 34.0231 25.7766 34.0231 25.7133C33.8971 25.7766 33.8341 26.03 33.9601 26.22C33.8971 26.2833 33.8341 26.3466 33.7711 26.41C33.393 26.22 33.393 25.84 33.393 25.84V25.7766H33.33C33.204 25.7133 33.078 25.65 33.015 25.5233C32.952 25.3966 32.952 25.27 33.015 25.2066C33.078 25.2066 33.078 25.2066 33.141 25.2066C33.204 25.2066 33.204 25.2066 33.267 25.2066C33.33 25.2066 33.33 25.2066 33.393 25.2066C33.6451 25.2066 33.8971 25.08 34.2121 24.8266L36.0393 24.7633ZM34.5901 23.3066L34.9682 23.4966L35.0312 23.56C34.8422 23.6233 34.6532 23.75 34.5271 23.8766C34.5271 23.94 34.4641 23.94 34.4641 24.0033C34.4641 24.0666 34.4011 24.0666 34.4011 24.13C34.4011 24.1933 34.3381 24.1933 34.3381 24.2566C34.0861 24.7 33.6451 24.9533 33.33 24.9533C32.952 24.9533 32.574 24.7 32.3219 24.2566C32.3219 24.1933 32.2589 24.1933 32.2589 24.13C32.2589 24.0666 32.1959 24.0666 32.1959 24.0033C32.1959 23.94 32.1329 23.94 32.1329 23.8766C32.0069 23.75 31.8179 23.6233 31.6289 23.56L31.6919 23.4966L32.0699 23.3066L32.4479 23.1166L33.456 23.6866L34.4641 23.1166L34.5901 23.3066ZM34.1491 22.8L33.33 23.2433V21.5333L34.4011 21.1533L34.1491 22.8ZM33.267 21.3433L32.0699 20.9C32.1959 20.6466 32.637 20.4566 33.267 20.4566C33.8971 20.4566 34.3381 20.6466 34.4641 20.9L33.267 21.3433Z" fill="black"/>
        <path d="M47.8843 28.4367V25.7767H49.4594V24.8267H45.175V25.7767H46.7502V28.4367H47.8843ZM51.0346 26.9167V24.7634H49.9005V28.4367H50.9086L52.7988 26.2834V28.4367H53.9329V24.7634H52.9248L51.0346 26.9167ZM57.5872 27.1067V28.4367H58.7213V24.7634H57.5872V26.0934H55.823V24.7634H54.6889V28.4367H55.823V27.1067H57.5872ZM61.8086 28.4367C62.0606 28.4367 62.3126 28.4367 62.5016 28.3734C63.0687 28.1834 63.4467 27.74 63.4467 27.1067C63.4467 26.4734 63.1317 26.0934 62.6277 25.9034C62.3756 25.84 62.1236 25.7767 61.8086 25.7767H60.6745V24.7634H59.5404V28.4367H61.8086ZM61.6196 26.6634C61.7456 26.6634 61.9346 26.6634 62.0606 26.7267C62.2496 26.79 62.3756 26.9167 62.3756 27.1067C62.3756 27.2967 62.2496 27.4867 62.1236 27.55C61.9976 27.6134 61.8716 27.6134 61.6826 27.6134H60.7375V26.6634H61.6196ZM65.4629 27.0434L66.786 28.4367H68.2352L66.408 26.5367L68.1722 24.7634H66.786L65.4629 26.1567H65.1479V24.7634H64.0138V28.4367H65.1479V27.0434H65.4629ZM70.5034 24.7C68.9912 24.7 68.1092 25.5234 68.1092 26.6634C68.1092 27.74 68.9912 28.6267 70.5034 28.6267C72.0155 28.6267 72.8976 27.8034 72.8976 26.6634C72.8976 25.5234 71.9525 24.7 70.5034 24.7ZM70.5034 27.6767C69.7473 27.6767 69.3063 27.2334 69.3063 26.6634C69.3063 26.0934 69.8103 25.65 70.5034 25.65C71.2594 25.65 71.7005 26.0934 71.7005 26.6634C71.7005 27.2334 71.2594 27.6767 70.5034 27.6767ZM76.5519 24.5734H75.4178V24.9534C74.0317 24.9534 73.2126 25.5867 73.2126 26.6C73.2126 27.6134 74.0317 28.1834 75.4178 28.2467V28.6267H76.5519V28.2467C77.9381 28.2467 78.7571 27.6767 78.7571 26.6C78.7571 25.5867 77.9381 24.9534 76.5519 24.9534V24.5734ZM75.4808 27.4234C74.7248 27.4234 74.4097 27.1067 74.4097 26.6C74.4097 26.0934 74.7248 25.7767 75.4808 25.7134V27.4234ZM76.5519 25.7134C77.308 25.7134 77.623 26.0934 77.623 26.6C77.623 27.1067 77.308 27.4234 76.5519 27.4234V25.7134ZM82.4745 24.5734H81.3404V24.9534C79.9542 24.9534 79.1352 25.5867 79.1352 26.6C79.1352 27.6134 79.9542 28.1834 81.3404 28.2467V28.6267H82.4745V28.2467C83.8606 28.2467 84.6797 27.6767 84.6797 26.6C84.6797 25.5867 83.8606 24.9534 82.4745 24.9534V24.5734ZM81.3404 27.4234C80.5843 27.4234 80.2693 27.1067 80.2693 26.6C80.2693 26.0934 80.5843 25.7767 81.3404 25.7134V27.4234ZM82.4745 25.7134C83.2305 25.7134 83.5456 26.0934 83.5456 26.6C83.5456 27.1067 83.2305 27.4234 82.4745 27.4234V25.7134Z" fill="black"/>
    </g>
    <defs>
        <clipPath id="clip0_72_129">
            <rect width="109" height="38" fill="white"/>
        </clipPath>
    </defs>
</svg>
